<?xml version="1.0" encoding="iso-8859-1"?>
<!-- Uploaded to: SVG Repo, www.svgrepo.com, Generator: SVG Repo Mixer Tools -->
<svg fill="#000000" height="800px" width="800px" version="1.1" id="Layer_1" xmlns="http://www.w3.org/2000/svg" xmlns:xlink="http://www.w3.org/1999/xlink" 
	 viewBox="0 0 470 470" xml:space="preserve">
<g>
	<g>
		<g>
			<path d="M437.5,0C419.579,0,405,14.579,405,32.5V185h-25v-17.5c0-26.191-21.309-47.5-47.5-47.5h-195
				c-26.191,0-47.5,21.309-47.5,47.5V185H65V32.5C65,14.579,50.42,0,32.5,0S0,14.579,0,32.5v240c0,4.143,3.358,7.5,7.5,7.5h50
				c4.142,0,7.5-3.357,7.5-7.5V260h25v162.5c0,26.191,21.309,47.5,47.5,47.5h195c26.191,0,47.5-21.309,47.5-47.5V260h25v12.5
				c0,4.143,3.357,7.5,7.5,7.5h50c4.143,0,7.5-3.357,7.5-7.5v-240C470,14.579,455.421,0,437.5,0z M90,245H65v-7.5
				c0-4.143-3.358-7.5-7.5-7.5c-4.142,0-7.5,3.357-7.5,7.5V265H15V32.5C15,22.851,22.851,15,32.5,15S50,22.851,50,32.5v175
				c0,4.143,3.358,7.5,7.5,7.5c4.142,0,7.5-3.357,7.5-7.5V200h25V245z M365,422.5c0,17.921-14.579,32.5-32.5,32.5h-195
				c-17.92,0-32.5-14.579-32.5-32.5v-255c0-17.921,14.58-32.5,32.5-32.5h195c17.921,0,32.5,14.579,32.5,32.5V422.5z M455,265h-35
				v-27.5c0-4.143-3.357-7.5-7.5-7.5s-7.5,3.357-7.5,7.5v7.5h-25v-45h25v7.5c0,4.143,3.357,7.5,7.5,7.5s7.5-3.357,7.5-7.5v-175
				c0-9.649,7.851-17.5,17.5-17.5S455,22.851,455,32.5V265z"/>
			<circle cx="185" cy="375.001" r="10"/>
			<circle cx="235" cy="375.001" r="10"/>
			<circle cx="285" cy="375.001" r="10"/>
			<path d="M312.979,223.82c-22.717-16.554-49.681-25.303-77.978-25.304c-28.297,0-55.264,8.75-77.979,25.303
				c-3.348,2.439-4.084,7.131-1.645,10.479c2.439,3.348,7.13,4.083,10.479,1.645c40.711-29.666,97.578-29.665,138.289,0.001
				c1.333,0.972,2.879,1.439,4.411,1.439c2.315-0.001,4.6-1.069,6.067-3.084C317.063,230.951,316.326,226.26,312.979,223.82z"/>
			<path d="M182.042,265.684c1.532,0,3.078-0.469,4.411-1.439c28.209-20.557,66.491-21.078,95.262-1.297
				c3.413,2.345,8.082,1.482,10.43-1.932c2.347-3.413,1.481-8.082-1.932-10.43c-34.004-23.379-79.251-22.762-112.594,1.535
				c-3.348,2.439-4.084,7.131-1.645,10.479C177.442,264.614,179.726,265.684,182.042,265.684z"/>
			<path d="M270.394,279.438c-21.798-14.985-50.803-14.592-72.178,0.984c-3.348,2.439-4.084,7.131-1.645,10.479
				c1.468,2.015,3.752,3.084,6.068,3.084c1.532,0,3.078-0.469,4.411-1.439c16.241-11.834,38.284-12.136,54.846-0.746
				c3.412,2.344,8.081,1.481,10.43-1.932C274.672,286.455,273.807,281.785,270.394,279.438z"/>
		</g>
	</g>
</g>
</svg>