<?xml version="1.0" ?>
<!DOCTYPE svg  PUBLIC '-//W3C//DTD SVG 1.1//EN'  'http://www.w3.org/Graphics/SVG/1.1/DTD/svg11.dtd'>
<!-- Uploaded to: SVG Repo, www.svgrepo.com, Generator: SVG Repo Mixer Tools -->
<svg width="800px" height="800px" viewBox="0 0 512 512" enable-background="new 0 0 512 512" id="Слой_1" version="1.1" xml:space="preserve" xmlns="http://www.w3.org/2000/svg" xmlns:xlink="http://www.w3.org/1999/xlink">
<g>
<g>
<g>
<g>
<path d="M359.75,478.512H152.644c-8.395-0.014-15.658-3.041-21.597-8.997       c-5.914-5.925-8.895-13.174-8.849-21.543V63.957c-0.046-8.359,2.932-15.628,8.843-21.576       c5.949-5.964,13.213-8.991,21.594-9.002h207.104c8.389,0.011,15.652,3.035,21.597,8.997c5.933,5.94,8.934,13.206,8.918,21.591       v49.313c0,3.022-2.451,5.473-5.474,5.473s-5.474-2.45-5.474-5.473V63.957c0.011-5.457-1.859-9.983-5.719-13.851       c-3.875-3.886-8.407-5.777-13.854-5.782h-207.09c-5.444,0.005-9.972,1.896-13.841,5.779c-3.833,3.856-5.688,8.381-5.658,13.823       v384.074c-0.029,5.445,1.82,9.945,5.652,13.783c3.872,3.883,8.402,5.774,13.854,5.782h207.088       c5.443-0.008,9.974-1.899,13.846-5.78c3.864-3.853,5.732-8.355,5.722-13.774V349.22c0-3.022,2.451-5.473,5.474-5.473       s5.474,2.45,5.474,5.473v98.781c0.016,8.355-2.988,15.6-8.929,21.524C375.395,475.471,368.131,478.498,359.75,478.512z        M256.117,450.942c-18.688,0-34.89-6.704-48.158-19.932c-2.114-2.116-4.075-4.329-5.845-6.584       c-1.865-2.379-1.451-5.82,0.93-7.686c2.379-1.865,5.821-1.445,7.681,0.93c1.502,1.913,3.175,3.798,4.972,5.599       c11.288,11.253,24.518,16.728,40.424,16.728c0.035,0,0.064,0,0.097,0h0.831c15.557-0.168,28.523-5.644,39.646-16.735       c1.742-1.767,3.395-3.65,4.875-5.562c1.849-2.394,5.286-2.824,7.675-0.98c2.393,1.852,2.83,5.288,0.979,7.678       c-1.745,2.258-3.686,4.47-5.765,6.581c-13.096,13.06-28.991,19.764-47.282,19.964h-0.948       C256.189,450.942,256.152,450.942,256.117,450.942z M354.404,397.859H157.911c-3.021,0-5.474-2.45-5.474-5.473       s2.453-5.473,5.474-5.473h196.493c3.021,0,5.474,2.45,5.474,5.473S357.425,397.859,354.404,397.859z M304.188,351.75h-0.003       h-0.003c-31.087-0.008-58.287-10.405-80.849-30.903c-1.216-1.131-2.373-2.239-3.522-3.378l-0.006-0.005       c-0.01-0.009-0.019-0.02-0.026-0.027l-1.16-1.157c-23.464-23.483-35.352-52.247-35.325-85.48       c-0.013-20.756,4.65-39.91,13.865-56.916c5.489-10.146,12.713-19.731,21.466-28.491l1.165-1.162       c0.021-0.021,0.043-0.043,0.064-0.063c23.262-22.698,51.605-34.218,84.259-34.239c0.021,0,0.048,0,0.072,0       c0.013,0,0.024,0,0.034,0c19.066,0.029,36.731,3.968,52.585,11.707c11.326,5.525,21.974,13.106,31.647,22.534       c0.038,0.035,0.072,0.069,0.107,0.107l1.125,1.125c8.752,8.751,15.977,18.336,21.463,28.485       c9.236,16.995,13.927,36.149,13.929,56.918l0,0c0.003,33.234-11.908,61.995-35.399,85.481l-0.765,0.719       c-0.106,0.136-0.225,0.268-0.351,0.396c-0.037,0.037-0.074,0.075-0.114,0.112c-9.669,9.43-20.316,17.011-31.646,22.534       C340.919,347.798,323.217,351.737,304.188,351.75z M231.618,313.581c18.933,16.855,41.488,25.968,67.094,27.104v-54.211       C273.128,287.604,250.588,296.708,231.618,313.581z M309.659,286.477v54.206c15.268-0.685,29.488-4.198,42.343-10.473       c8.678-4.233,16.936-9.815,24.611-16.632c-7.676-6.816-15.934-12.399-24.608-16.629       C339.147,290.672,324.927,287.158,309.659,286.477z M309.659,275.521c16.957,0.694,32.791,4.585,47.146,11.592       c9.797,4.778,19.09,11.095,27.682,18.82c18.393-19.459,28.34-42.886,29.526-69.656H309.659V275.521z M194.358,236.276       c1.16,26.706,11.043,50.083,29.438,69.619c21.175-19.037,46.339-29.229,74.916-30.378v-39.241H194.358z M309.659,225.331       H414.01c-0.746-16.811-4.937-32.339-12.489-46.229c-4.446-8.23-10.171-16.07-17.039-23.352       c-8.59,7.72-17.88,14.039-27.68,18.817c-14.349,7.004-30.186,10.895-47.143,11.592V225.331z M194.358,225.331h104.354v-39.169       c-28.599-1.152-53.779-11.357-74.918-30.381c-6.855,7.276-12.566,15.104-17.008,23.313       C199.26,192.986,195.085,208.518,194.358,225.331z M231.656,148.128c18.927,16.838,41.467,25.945,67.056,27.078v-54.211       C273.145,122.142,250.647,131.248,231.656,148.128z M309.659,120.995v54.208c15.268-0.684,29.488-4.198,42.343-10.473       c8.678-4.232,16.936-9.814,24.616-16.634c-7.633-6.779-15.912-12.384-24.613-16.627       C339.149,125.192,324.927,121.679,309.659,120.995z" fill="#333333"/>
</g>
</g>
</g>
</g>
</svg>