<?xml version="1.0" encoding="UTF-8" standalone="no"?>
<svg
   width="437pt"
   height="522pt"
   viewBox="0 0 437 522"
   version="1.1"
   id="svg6"
   sodipodi:docname="food_logo.svg"
   inkscape:version="1.3.2 (091e20e, 2023-11-25, custom)"
   xmlns:inkscape="http://www.inkscape.org/namespaces/inkscape"
   xmlns:sodipodi="http://sodipodi.sourceforge.net/DTD/sodipodi-0.dtd"
   xmlns="http://www.w3.org/2000/svg"
   xmlns:svg="http://www.w3.org/2000/svg">
  <defs
     id="defs6">
    <inkscape:path-effect
       effect="bspline"
       id="path-effect24"
       is_visible="true"
       lpeversion="1.3"
       weight="33.333333"
       steps="2"
       helper_size="0"
       apply_no_weight="true"
       apply_with_weight="true"
       only_selected="false"
       uniform="false" />
    <inkscape:path-effect
       effect="bspline"
       id="path-effect23"
       is_visible="true"
       lpeversion="1.3"
       weight="33.333333"
       steps="2"
       helper_size="0"
       apply_no_weight="true"
       apply_with_weight="true"
       only_selected="false"
       uniform="false" />
    <inkscape:path-effect
       effect="bspline"
       id="path-effect22"
       is_visible="true"
       lpeversion="1.3"
       weight="33.333333"
       steps="2"
       helper_size="0"
       apply_no_weight="true"
       apply_with_weight="true"
       only_selected="false"
       uniform="false" />
    <inkscape:path-effect
       effect="bspline"
       id="path-effect21"
       is_visible="true"
       lpeversion="1.3"
       weight="33.333333"
       steps="2"
       helper_size="0"
       apply_no_weight="true"
       apply_with_weight="true"
       only_selected="false"
       uniform="false" />
    <inkscape:path-effect
       effect="bspline"
       id="path-effect20"
       is_visible="true"
       lpeversion="1.3"
       weight="33.333333"
       steps="2"
       helper_size="0"
       apply_no_weight="true"
       apply_with_weight="true"
       only_selected="false"
       uniform="false" />
    <inkscape:path-effect
       effect="bspline"
       id="path-effect19"
       is_visible="true"
       lpeversion="1.3"
       weight="33.333333"
       steps="2"
       helper_size="0"
       apply_no_weight="true"
       apply_with_weight="true"
       only_selected="false"
       uniform="false" />
    <inkscape:path-effect
       effect="bspline"
       id="path-effect18"
       is_visible="true"
       lpeversion="1.3"
       weight="33.333333"
       steps="2"
       helper_size="0"
       apply_no_weight="true"
       apply_with_weight="true"
       only_selected="false"
       uniform="false" />
    <inkscape:path-effect
       effect="bspline"
       id="path-effect17"
       is_visible="true"
       lpeversion="1.3"
       weight="33.333333"
       steps="2"
       helper_size="0"
       apply_no_weight="true"
       apply_with_weight="true"
       only_selected="false"
       uniform="false" />
    <inkscape:path-effect
       effect="bspline"
       id="path-effect16"
       is_visible="true"
       lpeversion="1.3"
       weight="33.333333"
       steps="2"
       helper_size="0"
       apply_no_weight="true"
       apply_with_weight="true"
       only_selected="false"
       uniform="false" />
    <inkscape:path-effect
       effect="bspline"
       id="path-effect15"
       is_visible="true"
       lpeversion="1.3"
       weight="33.333333"
       steps="2"
       helper_size="0"
       apply_no_weight="true"
       apply_with_weight="true"
       only_selected="false"
       uniform="false" />
    <inkscape:path-effect
       effect="bspline"
       id="path-effect14"
       is_visible="true"
       lpeversion="1.3"
       weight="33.333333"
       steps="2"
       helper_size="0"
       apply_no_weight="true"
       apply_with_weight="true"
       only_selected="false"
       uniform="false" />
    <inkscape:path-effect
       effect="bspline"
       id="path-effect13"
       is_visible="true"
       lpeversion="1.3"
       weight="33.333333"
       steps="2"
       helper_size="0"
       apply_no_weight="true"
       apply_with_weight="true"
       only_selected="false"
       uniform="false" />
    <inkscape:path-effect
       effect="bspline"
       id="path-effect12"
       is_visible="true"
       lpeversion="1.3"
       weight="33.333333"
       steps="2"
       helper_size="0"
       apply_no_weight="true"
       apply_with_weight="true"
       only_selected="false"
       uniform="false" />
    <inkscape:path-effect
       effect="bspline"
       id="path-effect11"
       is_visible="true"
       lpeversion="1.3"
       weight="33.333333"
       steps="2"
       helper_size="0"
       apply_no_weight="true"
       apply_with_weight="true"
       only_selected="false"
       uniform="false" />
  </defs>
  <sodipodi:namedview
     id="namedview6"
     pagecolor="#ffffff"
     bordercolor="#000000"
     borderopacity="0.25"
     inkscape:showpageshadow="2"
     inkscape:pageopacity="0.0"
     inkscape:pagecheckerboard="0"
     inkscape:deskcolor="#d1d1d1"
     inkscape:document-units="pt"
     inkscape:zoom="1.8205968"
     inkscape:cx="257.3332"
     inkscape:cy="-59.595842"
     inkscape:window-width="1920"
     inkscape:window-height="1001"
     inkscape:window-x="-9"
     inkscape:window-y="-9"
     inkscape:window-maximized="1"
     inkscape:current-layer="surface1" />
  <g
     id="surface1">
    <path
       style=" stroke:none;fill-rule:nonzero;fill:rgb(13.699341%,12.199402%,12.5%);fill-opacity:1;"
       d="M 0.914063 0.3125 L 436.359375 0.3125 L 436.359375 521.578125 L 0.914063 521.578125 L 0.914063 0.3125 "
       id="path1" />
    <path
       style=" stroke:none;fill-rule:nonzero;fill:rgb(100%,100%,100%);fill-opacity:1;"
       d="M 18.109375 19.902344 L 419.164063 19.902344 L 419.164063 501.988281 L 18.109375 501.988281 L 18.109375 19.902344 "
       id="path2" />
    <path
       style=" stroke:none;fill-rule:nonzero;fill:rgb(13.699341%,12.199402%,12.5%);fill-opacity:1;"
       d="M 394.796875 63.207031 L 394.796875 175.210938 L 394.363281 178.492188 C 394.363281 178.492188 393.53125 181.664063 391.585938 186.410156 C 383.910156 205.117188 369.648438 222.414063 348.976563 227.390625 L 347.472656 457.671875 C 347.363281 474.496094 322.121094 474.332031 322.230469 457.503906 L 323.808594 216.144531 C 323.851563 209.488281 329.773438 203.605469 336.429688 203.605469 C 352.484375 203.605469 362.777344 190.125 368.230469 176.828125 L 369.554688 173.300781 L 369.554688 63.207031 C 369.554688 46.378906 394.796875 46.378906 394.796875 63.207031 "
       id="path3" />
    <path
       style=" stroke:none;fill-rule:nonzero;fill:rgb(13.699341%,12.199402%,12.5%);fill-opacity:1;"
       d="M 357.332031 63.207031 L 357.332031 161.011719 C 357.332031 177.839844 332.089844 177.839844 332.089844 161.011719 L 332.089844 63.207031 C 332.089844 46.378906 357.332031 46.378906 357.332031 63.207031 "
       id="path4" />
    <path
       style=" stroke:none;fill-rule:nonzero;fill:rgb(13.699341%,12.199402%,12.5%);fill-opacity:1;"
       d="M 320.652344 63.207031 L 320.652344 161.011719 C 320.652344 177.839844 295.410156 177.839844 295.410156 161.011719 L 295.410156 63.207031 C 295.410156 46.378906 320.652344 46.378906 320.652344 63.207031 "
       id="path5" />
    <path
       style=" stroke:none;fill-rule:nonzero;fill:rgb(13.699341%,12.199402%,12.5%);fill-opacity:1;"
       d="M 72.980469 75.828125 L 72.976563 259.070313 C 72.933594 260.175781 72.117188 285.636719 101.378906 285.636719 L 225.871094 285.636719 C 231.671875 283.867188 254.394531 275.445313 254.394531 254.085938 L 254.398438 75.828125 Z M 63.257813 444.765625 C 92.503906 438.804688 113.179688 412.699219 125.511719 387.171875 L 127.828125 382.105469 L 127.828125 310.878906 L 101.378906 310.878906 C 69.433594 310.878906 47.183594 289.175781 47.742188 258.820313 L 47.742188 63.207031 C 47.742188 56.492188 53.644531 50.585938 60.359375 50.585938 L 267.015625 50.585938 C 273.734375 50.585938 279.636719 56.492188 279.636719 63.207031 L 279.636719 254.085938 C 279.636719 282.40625 256.445313 304.523438 230.523438 310.53125 L 227.578125 310.878906 L 197.582031 310.878906 L 197.582031 382.515625 C 209.230469 409.460938 231.800781 438.988281 262.152344 445.179688 C 281.066406 439.746094 285.445313 473.699219 259.882813 470.382813 C 220.792969 465.308594 186.664063 425.09375 173.175781 389.53125 L 172.339844 385.019531 L 172.34375 310.878906 L 153.074219 310.878906 L 153.074219 384.609375 L 152.238281 389.117188 C 152.238281 389.117188 150.914063 392.617188 148.242188 398.148438 C 132.539063 430.648438 103.4375 465.046875 65.53125 469.96875 C 39.96875 473.289063 44.34375 439.332031 63.257813 444.765625 "
       id="path6" />
    <path
       style="fill:#ffffff;stroke-width:0.54927"
       d="M 1.6478113,347.96283 V 0.82390567 H 291.66261 581.6774 V 347.96283 695.10175 H 291.66261 1.6478113 Z M 559.15731,347.96227 V 26.089227 L 291.52529,26.227105 23.893264,26.364981 23.752869,347.41356 c -0.07722,176.57671 -0.02318,321.35754 0.120079,321.73516 0.207887,0.54795 54.267963,0.68659 267.772422,0.68659 h 267.51194 z"
       id="path7"
       transform="scale(0.75)" />
    <path
       style="fill:#ffffff"
       d="M 1.6478113,347.96283 V 0.82390567 H 291.66261 581.6774 V 347.96283 695.10175 H 291.66261 1.6478113 Z m 557.5094987,0 V 26.090346 H 291.38797 23.618629 L 23.755479,347.82551 23.89233,669.56067 24.030581,348.10015 24.168832,26.639617 H 291.38844 558.60804 V 347.96227 669.28494 l -266.53348,0.13842 -266.533484,0.13841 266.808114,0.13677 266.80812,0.13677 z M 360.41461,626.0082 c 8.74657,-3.87461 12.46897,-14.40314 8.47332,-23.9661 -2.79762,-6.69561 -10.29797,-10.75137 -17.08021,-9.23587 -1.70549,0.38108 -3.24432,0.21476 -6.87755,-0.74322 -30.32978,-7.99738 -58.86221,-35.65567 -78.29265,-75.89402 l -2.98771,-6.1872 v -47.50398 -47.50399 l 19.63642,-0.004 c 10.98936,-0.002 21.20861,-0.25693 23.20668,-0.57818 5.1599,-0.82962 14.13819,-3.9587 20.53887,-7.15812 9.4639,-4.73061 15.85394,-9.34798 23.43926,-16.93692 9.84709,-9.8518 15.21426,-18.26413 19.13405,-29.99013 3.53615,-10.5783 3.3449,-2.16659 3.34733,-147.22886 0.003,-150.379304 0.57299,-134.871268 -5.17268,-140.616939 -5.7531,-5.753103 10.9552,-5.174891 -149.53669,-5.174891 -137.62622,0 -140.846554,0.02372 -143.56686,1.057351 -4.256423,1.617316 -7.33894,4.461724 -9.422976,8.695094 l -1.812477,3.681738 V 217.77426 c 0,130.20979 0.04978,137.30133 0.99681,141.99788 5.902323,29.27118 26.146229,48.53373 56.660203,53.91353 3.7682,0.66435 10.27138,0.93855 27.06795,1.14128 l 22.10814,0.26683 v 47.19158 47.19157 l -5.09355,10.00989 c -6.06066,11.91046 -10.77074,19.56206 -18.02892,29.28824 -16.61838,22.26913 -36.81717,37.11074 -58.169558,42.74159 -3.613831,0.95298 -5.165257,1.121 -6.86588,0.74349 -7.500459,-1.66489 -15.748457,3.53467 -17.92782,11.30168 -0.968061,3.45002 -0.850001,9.03264 0.25936,12.264 1.300233,3.78739 4.63074,7.4564 8.487712,9.3504 2.977084,1.46193 3.520752,1.54037 10.553924,1.52197 6.544035,-0.0171 8.24383,-0.23124 14.469063,-1.82248 13.182949,-3.36972 23.899809,-8.17825 35.634899,-15.98893 9.23086,-6.14392 16.37769,-12.18683 25.42861,-21.50092 15.41283,-15.86101 28.58245,-35.01929 39.03843,-56.79061 6.68973,-13.92928 5.97167,-6.37479 6.14751,-64.67659 l 0.15364,-50.94484 h 12.6169 12.61689 v 49.68194 c 0,34.82856 0.18538,50.54632 0.62005,52.57314 1.38066,6.43782 9.90335,24.15215 17.2527,35.85958 8.45696,13.47185 17.39264,24.65367 28.78359,36.0189 20.65112,20.6044 42.61503,33.19901 65.66946,37.65623 5.63988,1.09041 15.20944,0.69955 18.49376,-0.75541 z m 92.94593,-0.13842 c 3.60807,-1.34994 6.81734,-4.32364 8.61984,-7.987 l 1.32842,-2.69988 0.35018,-31.85769 c 0.19261,-17.52172 0.64994,-84.50525 1.0163,-148.85229 0.36637,-64.34703 0.8269,-120.16661 1.02341,-124.04352 l 0.35728,-7.0489 4.6688,-1.51287 c 23.22231,-7.52487 42.83464,-28.85502 53.67305,-58.37419 l 2.0779,-5.65934 v -78.82031 c 0,-75.995698 -0.0372,-78.916828 -1.03887,-81.513702 -2.26621,-5.875425 -7.64596,-9.649775 -14.3843,-10.091812 -7.39279,-0.484967 -13.13054,2.358419 -16.37833,8.11641 l -1.70399,3.020988 -0.27464,76.623226 -0.27464,76.62323 -2.27216,5.0803 c -6.59298,14.74114 -14.93355,24.80737 -24.8466,29.98736 -4.97605,2.60019 -8.67152,3.61058 -15.41994,4.21603 -6.9889,0.62702 -10.40801,2.11177 -13.95958,6.06197 -4.77356,5.30936 -4.20978,-12.4053 -5.44587,171.11405 -0.6045,89.74927 -0.93131,164.29929 -0.72626,165.66664 0.78789,5.25405 5.82587,10.98618 10.96468,12.47552 3.22638,0.93508 9.43261,0.6778 12.64532,-0.52422 z M 417.56225,230.40459 c 4.86858,-1.86561 7.96481,-5.2905 9.45709,-10.46094 0.79405,-2.7512 0.8683,-9.98786 0.73546,-71.67979 l -0.14776,-68.619645 -1.26399,-2.746353 c -2.63738,-5.730373 -7.60486,-9.059617 -14.15918,-9.489586 -7.39279,-0.484967 -13.13054,2.358419 -16.37833,8.11641 l -1.704,3.020988 -0.14556,70.002736 c -0.16187,77.84333 -0.39167,72.84968 3.56511,77.47229 3.05317,3.56694 7.58049,5.49582 12.90065,5.49636 2.93355,3e-4 5.12933,-0.3418 7.14051,-1.11247 z m 50.26426,-0.4339 c 3.10472,-1.61537 5.71216,-4.3089 7.33184,-7.57388 l 1.33376,-2.68863 v -69.75735 c 0,-67.106253 -0.0395,-69.859707 -1.03887,-72.450742 -2.26621,-5.875425 -7.64596,-9.649775 -14.3843,-10.091812 -7.34438,-0.481792 -13.2838,2.473393 -16.44589,8.182729 l -1.63644,2.954669 -0.14556,70.002736 c -0.16187,77.84333 -0.39167,72.84968 3.56511,77.47229 1.18784,1.38772 3.36993,3.00432 5.33692,3.95384 3.09733,1.49518 3.6884,1.59234 8.54555,1.40471 4.02557,-0.1555 5.74823,-0.47741 7.53788,-1.40856 z"
       id="path8"
       transform="scale(0.75)" />
    <path
       style="fill:#ffffff;stroke-width:0.00858235"
       d="m 23.769883,369.26208 c -0.0029,-0.24664 -0.0065,-5.83504 -0.0079,-12.41866 l -0.0027,-11.97024 h 0.133682 0.133682 l -0.0023,10.84595 c -0.0013,5.96527 -0.0047,11.55367 -0.0077,12.41866 l -0.0054,1.57272 h -0.118073 -0.118072 z"
       id="path9"
       transform="scale(0.75)" />
    <path
       style="fill:#ffffff;stroke-width:0.0121373"
       d="m 419.87695,695.2657 v -0.16386 h 31.35059 31.35059 v 0.16386 0.16385 h -31.35059 -31.35059 z"
       id="path10"
       transform="scale(0.75)" />
    <path
       style="fill:#ffffff;fill-opacity:0;stroke:#ffffff;stroke-width:7.739;stroke-linecap:round;stroke-dasharray:none"
       d="m 20.460324,100.10454 c -1.785129,81.1547 -1.235859,243.46412 -0.549261,325.16811 0.686597,81.70399 1.510481,82.8025 36.664486,82.25321 35.154004,-0.54929 104.635321,-2.74633 171.097681,-3.84487 66.46235,-1.09854 129.90182,-1.09854 161.48487,-2.47174 31.58305,-1.3732 31.30842,-4.1195 31.17111,-83.62796 -0.13732,-79.50846 -0.13732,-235.77278 -0.54928,-313.35722 -0.41196,-77.584432 -1.23584,-76.485936 -4.53153,-77.44718 -3.29569,-0.961244 -9.06279,-3.982107 -74.5646,-5.904591 C 275.18199,18.949814 149.95083,18.125925 88.295245,17.988612 26.639655,17.8513 28.562063,18.40056 27.463481,18.675195 26.364899,18.94983 22.245453,18.94983 20.460324,100.10454 Z"
       id="path11"
       inkscape:path-effect="#path-effect11"
       inkscape:original-d="m 18.125924,18.94983 c 0.549271,162.30941 1.098541,324.61883 1.647812,486.92824 0.823922,1.09857 1.647811,2.19708 2.471717,3.29563 69.4841,-2.19713 138.965417,-4.39417 208.448127,-6.59125 63.442,0 126.88147,0 190.32221,0 -0.27464,-2.7464 -0.54927,-5.4927 -0.8239,-8.23906 0,-156.27056 0,-312.53488 0,-468.802315 -0.82392,1.098563 -1.6478,2.197059 -2.47172,3.295623 -5.76746,-3.021052 -11.53456,-6.041915 -17.30202,-9.062962 -125.23616,-0.823922 -250.46732,-1.647811 -375.70098,-2.471717 1.922485,0.549282 3.844893,1.098541 5.767339,1.647811 -4.11961,0 -8.239056,0 -12.358585,0 z"
       sodipodi:nodetypes="cccccccccccc" />
    <path
       style="fill:#ffffff;fill-opacity:0;stroke:#ffffff;stroke-width:7.73903;stroke-linecap:round"
       d="m 2.3303571,517.33928 c -0.3883929,-174 -0.7767857,-348 -0.5825815,-434.223196 C 1.9419798,-3.1071117 2.71875,-1.5535714 3.4955357,0"
       id="path12"
       inkscape:path-effect="#path-effect12"
       inkscape:original-d="m 2.3303571,517.33928 c -0.3883928,-174 -0.7767857,-348 -1.1651786,-521.9999942 C 1.9419798,-3.1071117 2.7187499,-1.5535714 3.4955357,0" />
    <path
       style="fill:#ffffff;fill-opacity:0;stroke:#ffffff;stroke-width:7.73903;stroke-linecap:round"
       d="m 16.3125,13.982143 c 1.941964,18.254463 3.883929,36.508927 5.825893,54.763392"
       id="path13"
       inkscape:path-effect="#path-effect13"
       inkscape:original-d="m 16.3125,13.982143 c 1.941964,18.254463 3.883928,36.508927 5.825893,54.763392" />
    <path
       style="fill:#ffffff;fill-opacity:0;stroke:#ffffff;stroke-width:7.73903;stroke-linecap:round"
       d="M 1.2358585,0.82390568 C 146.10594,0.54927045 290.97602,0.27463521 435.84609,0"
       id="path14"
       inkscape:path-effect="#path-effect14"
       inkscape:original-d="M 1.2358585,0.82390568 C 146.10594,0.54927044 290.97602,0.27463522 435.84609,0" />
    <path
       style="fill:#ffffff;fill-opacity:0;stroke:#ffffff;stroke-width:7.73903;stroke-linecap:round"
       d="m 436.67,522.35618 c 0,-174.11872 0,-348.23746 0,-522.35618"
       id="path15"
       inkscape:path-effect="#path-effect15"
       inkscape:original-d="m 436.67,522.35618 c 0,-174.11872 0,-348.23746 0,-522.35618" />
    <path
       style="fill:#ffffff;fill-opacity:0;stroke:#ffffff;stroke-width:7.73903;stroke-linecap:round"
       d="M 3.2956226,517.41275 C 147.75375,518.51129 292.21187,519.60983 436.67,520.70837"
       id="path16"
       inkscape:path-effect="#path-effect16"
       inkscape:original-d="M 3.2956226,517.41275 C 147.75375,518.51129 292.21187,519.60983 436.67,520.70837" />
    <path
       style="fill:#ffffff;fill-opacity:0;stroke:#ffffff;stroke-width:7.73903;stroke-linecap:round"
       d="m 383.94004,15.654208 c 15.92883,3.844891 31.85768,7.689786 47.78652,11.534679"
       id="path17"
       inkscape:path-effect="#path-effect17"
       inkscape:original-d="m 383.94004,15.654208 c 15.92883,3.844893 31.85768,7.689786 47.78652,11.534679" />
    <path
       style="fill:#ffffff;fill-opacity:0;stroke:#ffffff;stroke-width:7.73903;stroke-linecap:round"
       d="m 398.77033,504.23026 c 9.06297,-1.64781 18.12593,-3.29562 27.18889,-4.94343"
       id="path18"
       inkscape:path-effect="#path-effect18"
       inkscape:original-d="m 398.77033,504.23026 c 9.06297,-1.64781 18.12593,-3.29562 27.18889,-4.94343" />
    <path
       style="fill:#ffffff;fill-opacity:0;stroke:#ffffff;stroke-width:7.73903;stroke-linecap:round"
       d="M 0.41195283,520.91435 C 23.687287,521.18899 46.962623,521.46362 70.237957,521.73826"
       id="path19"
       inkscape:path-effect="#path-effect19"
       inkscape:original-d="m 0.41195283,520.91435 c 23.27533417,0.27464 46.55066917,0.54927 69.82600417,0.82391 59.391053,0.13732 118.779733,0.27463 178.169603,0.41195" />
    <path
       style="fill:#ffffff;fill-opacity:0;stroke:#ffffff;stroke-width:7.73903;stroke-linecap:round"
       d="m 32.338297,502.78843 c 32.681591,-0.48061 65.363183,-0.96123 98.044773,-1.44184"
       id="path20"
       inkscape:path-effect="#path-effect20"
       inkscape:original-d="m 32.338297,502.78843 c 32.681591,-0.48062 65.363183,-0.96122 98.044773,-1.44184" />
    <path
       style="fill:#ffffff;fill-opacity:0;stroke:#ffffff;stroke-width:7.73903;stroke-linecap:round"
       d="m 246.96572,522.76814 c 63.1661,-0.34329 126.3322,-0.68659 189.4983,-1.02988"
       id="path21"
       inkscape:path-effect="#path-effect21"
       inkscape:original-d="m 246.96572,522.76814 c 63.1661,-0.3433 126.3322,-0.68659 189.4983,-1.02988" />
    <path
       style="fill:#ffffff;fill-opacity:0;stroke:#ffffff;stroke-width:7.73903;stroke-linecap:round"
       d="m 418.3381,486.92824 c 1.37317,5.0121 2.74635,10.02419 4.11952,15.03628"
       id="path22"
       inkscape:path-effect="#path-effect22"
       inkscape:original-d="m 418.3381,486.92824 c 1.37317,5.0121 2.74635,10.02419 4.11952,15.03628" />
    <path
       style="fill:#ffffff;fill-opacity:0;stroke:#ffffff;stroke-width:7.73903;stroke-linecap:round"
       d="m 414.01259,19.979712 c 3.36429,-0.06866 6.72857,-0.137317 10.09285,-0.205976"
       id="path23"
       inkscape:path-effect="#path-effect23"
       inkscape:original-d="m 414.01259,19.979712 c 3.36429,-0.06865 6.72857,-0.137318 10.09285,-0.205976" />
    <path
       style="fill:#ffffff;fill-opacity:0;stroke:#ffffff;stroke-width:20;stroke-linecap:round;stroke-dasharray:none"
       d="M -1.2358585,0 C 57.673394,-0.13796078 116.17069,-0.27495679 174.668,-0.41195283"
       id="path24"
       inkscape:path-effect="#path-effect24"
       inkscape:original-d="M -1.2358585,0 C 57.673396,-0.13731761 116.03338,-0.27463522 174.668,-0.41195283 261.86643,-0.27463247 349.06136,-0.13731761 436.25804,0" />
  </g>
</svg>
