<?xml version="1.0" encoding="UTF-8" standalone="no"?>
<!-- Created with Inkscape (http://www.inkscape.org/) -->

<svg
   width="210mm"
   height="297mm"
   viewBox="0 0 210 297"
   version="1.1"
   id="svg1"
   inkscape:version="1.3.2 (091e20e, 2023-11-25, custom)"
   sodipodi:docname="recept_logo.svg"
   xmlns:inkscape="http://www.inkscape.org/namespaces/inkscape"
   xmlns:sodipodi="http://sodipodi.sourceforge.net/DTD/sodipodi-0.dtd"
   xmlns="http://www.w3.org/2000/svg"
   xmlns:svg="http://www.w3.org/2000/svg">
  <sodipodi:namedview
     id="namedview1"
     pagecolor="#ffffff"
     bordercolor="#000000"
     borderopacity="0.25"
     inkscape:showpageshadow="2"
     inkscape:pageopacity="0.0"
     inkscape:pagecheckerboard="0"
     inkscape:deskcolor="#d1d1d1"
     inkscape:document-units="mm"
     inkscape:zoom="0.79820427"
     inkscape:cx="300.04851"
     inkscape:cy="560.00703"
     inkscape:window-width="2532"
     inkscape:window-height="1284"
     inkscape:window-x="112"
     inkscape:window-y="266"
     inkscape:window-maximized="0"
     inkscape:current-layer="layer1" />
  <defs
     id="defs1">
    <inkscape:path-effect
       effect="bspline"
       id="path-effect8"
       is_visible="true"
       lpeversion="1.3"
       weight="33.333333"
       steps="2"
       helper_size="0"
       apply_no_weight="true"
       apply_with_weight="true"
       only_selected="false"
       uniform="false" />
    <inkscape:path-effect
       effect="bspline"
       id="path-effect7"
       is_visible="true"
       lpeversion="1.3"
       weight="33.333333"
       steps="2"
       helper_size="0"
       apply_no_weight="true"
       apply_with_weight="true"
       only_selected="false"
       uniform="false" />
    <inkscape:path-effect
       effect="bspline"
       id="path-effect6"
       is_visible="true"
       lpeversion="1.3"
       weight="33.333333"
       steps="2"
       helper_size="0"
       apply_no_weight="true"
       apply_with_weight="true"
       only_selected="false"
       uniform="false" />
    <inkscape:path-effect
       effect="bspline"
       id="path-effect5"
       is_visible="true"
       lpeversion="1.3"
       weight="33.333333"
       steps="2"
       helper_size="0"
       apply_no_weight="true"
       apply_with_weight="true"
       only_selected="false"
       uniform="false" />
    <inkscape:path-effect
       effect="bspline"
       id="path-effect3"
       is_visible="true"
       lpeversion="1.3"
       weight="33.333333"
       steps="2"
       helper_size="0"
       apply_no_weight="true"
       apply_with_weight="true"
       only_selected="false"
       uniform="false" />
    <inkscape:path-effect
       effect="bspline"
       id="path-effect2"
       is_visible="true"
       lpeversion="1.3"
       weight="33.333333"
       steps="2"
       helper_size="0"
       apply_no_weight="true"
       apply_with_weight="true"
       only_selected="false"
       uniform="false" />
  </defs>
  <g
     inkscape:label="Vrstva 1"
     inkscape:groupmode="layer"
     id="layer1">
    <path
       style="fill:none;stroke:#000000;stroke-width:5;stroke-linecap:round;stroke-linejoin:round;stroke-dasharray:none"
       d="m 133.60056,49.22126 -62.346925,0.468775 c 0,0 -3.288719,-22.106765 0.351965,-27.833856 3.640684,-5.727091 13.251543,-5.282519 13.251543,-5.282519 l 40.771207,1e-6 c 0,0 4.83654,0.572795 7.50387,5.995822 2.66734,5.423027 0.46834,26.651777 0.46834,26.651777 z"
       id="path1"
       sodipodi:nodetypes="cczcczc" />
    <path
       style="fill:none;stroke:#000000;stroke-width:8;stroke-linecap:round;stroke-linejoin:round;stroke-dasharray:none"
       d="m 69.940846,35.467634 c -10.717633,0 -21.435266,0 -26.84933,4.198744 -5.414064,4.198744 -5.524553,12.595899 -5.469305,48.616625 0.05525,36.020727 0.276226,99.662307 2.154609,131.483737 1.878383,31.82143 5.414029,31.82143 20.109599,31.82143 14.695571,0 40.549961,0 66.404871,0"
       id="path2"
       inkscape:path-effect="#path-effect2"
       inkscape:original-d="m 69.940846,35.467634 c -10.717633,0 -21.435266,0 -32.152901,0 -0.110493,8.397488 -0.22098,16.794643 -0.331473,25.191963 0.220988,63.644133 0.441965,127.285713 0.662948,190.928573 3.535783,0 7.071429,0 10.607143,0 25.855427,0 51.709817,0 77.564727,0"
       transform="translate(-1.3258929)" />
    <path
       style="fill:none;stroke:#000000;stroke-width:7.99999;stroke-linecap:round;stroke-linejoin:round;stroke-dasharray:none"
       d="m 134.9096,33.478795 c 9.06027,0 18.12053,0 22.8164,3.480538 4.69588,3.480538 5.02735,10.441337 5.24833,27.346739 0.22098,16.905403 0.33147,43.754198 0.44196,70.603528"
       id="path3"
       inkscape:path-effect="#path-effect3"
       inkscape:original-d="m 134.9096,33.478795 c 9.06027,0 18.12053,0 27.1808,0 0.33148,6.961076 0.66294,13.921875 0.99442,20.882811 0.11049,26.849869 0.22098,53.698664 0.33147,80.547994"
       transform="translate(1.6573661)" />
    <ellipse
       style="fill:none;stroke:#000000;stroke-width:7.99999;stroke-linecap:round;stroke-linejoin:round;stroke-dasharray:none"
       id="path4"
       cx="65.963165"
       cy="83.034035"
       rx="4.3091516"
       ry="3.8119421" />
    <ellipse
       style="fill:none;stroke:#000000;stroke-width:7.99999;stroke-linecap:round;stroke-linejoin:round;stroke-dasharray:none"
       id="ellipse4"
       cx="66.29464"
       cy="126.12555"
       rx="4.3091516"
       ry="3.8119421" />
    <path
       style="fill:none;stroke:#000000;stroke-width:7.99999;stroke-linecap:round;stroke-linejoin:round;stroke-dasharray:none"
       d="M 91.486605,82.536828 C 107.50781,82.205355 123.52902,81.873883 139.55022,81.54241"
       id="path5"
       inkscape:path-effect="#path-effect5"
       inkscape:original-d="M 91.486605,82.536828 C 107.50781,82.205355 123.52902,81.873883 139.55022,81.54241"
       transform="translate(-1.6573661,0.33147321)" />
    <path
       style="fill:none;stroke:#000000;stroke-width:7.99999;stroke-linecap:round;stroke-linejoin:round;stroke-dasharray:none"
       d="m 85.851562,125.62835 c 16.242188,0 32.484378,0 48.726558,0"
       id="path6"
       inkscape:path-effect="#path-effect6"
       inkscape:original-d="m 85.851562,125.62835 c 16.242188,0 32.484378,0 48.726558,0"
       transform="translate(2.6517857)" />
    <path
       style="fill:#000000;stroke:#000000;stroke-width:7.99999;stroke-linecap:round;stroke-linejoin:round;stroke-dasharray:none"
       d="m 138.16908,192.14397 c -1.16015,-6.07701 -3.70145,-5.96652 -5.80079,-6.57423 -2.09935,-0.60771 -3.75669,-1.93358 -4.25389,-6.13231 -0.4972,-4.19873 0.16573,-11.27002 1.93362,-16.24215 1.76788,-4.97213 4.6406,-7.84484 8.56308,-9.55745 3.92248,-1.71262 8.89448,-2.26506 12.31972,-0.44192 3.42525,1.82315 5.30355,6.02172 6.40847,10.66239 1.10491,4.64068 1.43638,9.72317 0.77341,13.70088 -0.66296,3.97771 -2.3203,6.85042 -3.97768,8.17631 -1.65738,1.32589 -3.31471,1.10491 -4.64061,0.99442 -1.32591,-0.11049 -2.32031,-0.11049 -2.70702,11.76753 -0.38672,11.87803 -0.16574,35.63314 -0.0553,48.72636 0.11049,13.09321 0.11049,15.52396 -1.27068,16.73936 -1.38116,1.2154 -4.14338,1.2154 -5.63501,0.22096 -1.49164,-0.99443 -1.71262,-2.98323 -1.65737,-10.05478 0.0553,-7.07155 0.38672,-19.22532 0.66295,-31.43471 0.27623,-12.20939 0.49721,-24.47365 -0.66295,-30.55066 z"
       id="path7"
       inkscape:path-effect="#path-effect8"
       inkscape:original-d="m 139.55022,185.95647 c -2.54129,0.11049 -5.08259,0.22098 -7.62388,0.33147 -1.6574,-1.32591 -3.31474,-2.65178 -4.9721,-3.97767 0.66296,-7.07157 1.32589,-14.14286 1.98884,-21.21429 2.87282,-2.87283 5.74554,-5.74554 8.6183,-8.6183 4.9722,-0.55247 9.9442,-1.10491 14.9163,-1.65737 1.87838,4.19875 3.75669,8.39732 5.63504,12.59598 0.33148,5.08269 0.66295,10.16518 0.99442,15.24777 -1.6574,2.87283 -3.31473,5.74554 -4.9721,8.6183 -1.6574,-0.22098 -3.31473,-0.44196 -4.97209,-0.66294 -0.99445,0 -1.98885,0 -2.98326,0 0.22098,23.75605 0.44196,47.51116 0.66294,71.26674 0,2.43085 0,4.8616 0,7.2924 -2.76233,0 -5.52455,0 -8.28683,0 -0.22099,-1.98887 -0.44196,-3.97767 -0.66295,-5.96651 0.33148,-12.15426 0.66295,-24.30803 0.99442,-36.46205 0.22099,-12.26476 0.44197,-24.52902 0.66295,-36.79353 z"
       transform="translate(1.3258929,-11.270089)" />
  </g>
</svg>
