<?xml version="1.0" encoding="utf-8"?><!-- Uploaded to: SVG Repo, www.svgrepo.com, Generator: SVG Repo Mixer Tools -->
<svg width="800px" height="800px" viewBox="0 0 400 400" fill="none" xmlns="http://www.w3.org/2000/svg">
<path d="M193.435 185.793C193.435 204.992 205.461 224.831 184.774 224.831C183.501 226.952 214.564 228.717 205.461 242.372C200.283 250.14 191.323 247.722 184.775 247.722" stroke="#000000" stroke-opacity="0.9" stroke-width="16" stroke-linecap="round" stroke-linejoin="round"/>
<path d="M209.885 248.51C158.279 268.423 210.909 304.827 229.273 321.466C308.629 393.366 290.07 279.868 270.235 275.388" stroke="#000000" stroke-opacity="0.9" stroke-width="16" stroke-linecap="round" stroke-linejoin="round"/>
<path d="M157.597 229.31C107.739 201.152 105.596 159.151 107.739 126.475C110.293 87.512 156.594 41.9625 217.674 45.1592C275.526 48.1862 302.11 117.478 299.706 159.151C296.51 214.549 265.26 226.978 233.281 237.038" stroke="#000000" stroke-opacity="0.9" stroke-width="16" stroke-linecap="round" stroke-linejoin="round"/>
<path d="M180.396 150.095C180.393 145.457 181.936 130.958 182.624 129.408" stroke="#000000" stroke-opacity="0.9" stroke-width="16" stroke-linecap="round" stroke-linejoin="round"/>
<path d="M220.504 150.425C220.176 144.889 220.968 137.643 221.956 129.738" stroke="#000000" stroke-opacity="0.9" stroke-width="16" stroke-linecap="round" stroke-linejoin="round"/>
<path d="M270.231 275.388C256.792 270.268 162.973 271.292 143.518 285.628C124.063 299.963 106.4 337.678 100 354.744" stroke="#000000" stroke-opacity="0.9" stroke-width="16" stroke-linecap="round"/>
<path d="M147.357 285.627C147.348 304.968 156.317 330.354 156.317 350.904" stroke="#000000" stroke-opacity="0.9" stroke-width="16" stroke-linecap="round"/>
</svg>