<?xml version="1.0" ?>
<!-- Uploaded to: SVG Repo, www.svgrepo.com, Generator: SVG Repo Mixer Tools -->
<svg fill="#000000" width="800px" height="800px" viewBox="0 0 56 56" id="Layer_1" version="1.1" xml:space="preserve" xmlns="http://www.w3.org/2000/svg" xmlns:xlink="http://www.w3.org/1999/xlink">
<g>
<path d="M14.2,18.8l6.9,4.4c0.5,0.3,1.1,0.2,1.4-0.3l5.1-7.9l3.2,4.9l-3,2c-0.3,0.2-0.5,0.7-0.4,1.1s0.4,0.7,0.9,0.8L39.3,25   c0,0,0.1,0,0.1,0c0.5,0,0.9-0.3,1-0.8l2.4-10.6c0.1-0.4-0.1-0.8-0.4-1.1c-0.4-0.2-0.8-0.2-1.1,0l-2.5,1.8l-5.9-9.3   c-0.2-0.3-0.5-0.5-0.8-0.5h-9.4c0,0-0.1,0-0.1,0c0,0,0,0-0.1,0c-0.1,0-0.2,0.1-0.3,0.1c0,0,0,0,0,0c0,0,0,0,0,0   c-0.1,0.1-0.2,0.1-0.2,0.2c0,0,0,0,0,0c0,0,0,0,0,0l-7.9,12.3c-0.1,0.2-0.2,0.5-0.1,0.8C13.8,18.4,13.9,18.7,14.2,18.8z M37.7,16.4   c0.2,0.2,0.4,0.4,0.7,0.4c0.3,0.1,0.6,0,0.8-0.2l1.1-0.9l-1.6,7.1L31.1,22l1.6-1.1c0.5-0.3,0.6-0.9,0.3-1.4l-4.6-7c0,0,0,0,0,0   l-3.9-5.9h7L37.7,16.4z M22.6,7.5l3.7,5.6L21.3,21l-5.2-3.3L22.6,7.5z"/>
<path d="M53,39.1C53,39.1,53,39.1,53,39.1C53,39.1,53,39.1,53,39.1c0-0.2,0-0.3-0.1-0.4c0,0,0,0,0,0c0,0,0,0,0,0l-5.5-13.6   c-0.1-0.2-0.3-0.4-0.5-0.5c-0.2-0.1-0.5-0.1-0.8,0l-7.5,3.1c-0.5,0.2-0.8,0.8-0.5,1.3l3.5,8.8l-5.8-0.2l0.1-3.7   c0-0.4-0.2-0.8-0.6-1c-0.4-0.2-0.8-0.1-1.1,0.3l-7.5,8.4c-0.3,0.4-0.3,1,0,1.3l7.3,8.1c0.2,0.2,0.5,0.3,0.7,0.3   c0.1,0,0.3,0,0.4-0.1c0.4-0.2,0.6-0.5,0.6-1l-0.1-3.1l11,0.5c0.3,0,0.7-0.1,0.9-0.4l5.4-7.7c0,0,0-0.1,0.1-0.1c0,0,0,0,0-0.1   C53,39.3,53,39.2,53,39.1z M40.3,29.2l5.7-2.3L50.5,38l-6.7-0.2L40.3,29.2z M46.1,45.7l-11.5-0.5c-0.3,0-0.5,0.1-0.7,0.3   c-0.2,0.2-0.3,0.5-0.3,0.7l0,1.4l-4.9-5.4l5.1-5.7l-0.1,1.9c0,0.6,0.4,1,1,1l8.3,0.3l7.1,0.2L46.1,45.7z"/>
<path d="M23.7,39.2L14.3,39l2.5-5.3l3.3,1.6c0.4,0.2,0.8,0.1,1.1-0.2c0.3-0.3,0.4-0.7,0.2-1.1l-4.7-10.2c-0.2-0.5-0.7-0.7-1.2-0.5   L5.2,26.6c-0.4,0.1-0.7,0.5-0.7,0.9s0.2,0.8,0.6,1l2.8,1.1l-4.8,9.9c-0.1,0.3-0.1,0.7,0,1l4.9,8c0,0,0.1,0.1,0.1,0.1c0,0,0,0,0,0.1   c0.1,0.1,0.2,0.2,0.3,0.2c0,0,0,0,0,0c0,0,0,0,0,0c0.1,0,0.2,0.1,0.4,0.1l14.6,0.4c0,0,0,0,0,0c0.3,0,0.5-0.1,0.7-0.3   c0.2-0.2,0.3-0.4,0.3-0.7l0.2-8.1C24.7,39.7,24.2,39.2,23.7,39.2z M10.2,29.5c0.1-0.2,0.1-0.5,0-0.8c-0.1-0.3-0.3-0.5-0.6-0.6   l-1.3-0.5l6.9-2.3l3.2,6.9l-1.7-0.8c-0.5-0.2-1.1,0-1.3,0.5l-3.6,7.5c0,0,0,0,0,0l-3,6.4l-3.6-6L10.2,29.5z M22.5,47.4L10.4,47   l2.9-6.1l9.3,0.3L22.5,47.4z"/>
</g>
</svg>