<?xml version="1.0" encoding="utf-8"?>
<!-- Uploaded to: SVG Repo, www.svgrepo.com, Generator: SVG Repo Mixer Tools -->
<svg width="800px" height="800px" viewBox="-68.88 0 370.508 370.508" xmlns="http://www.w3.org/2000/svg"><defs><style>.a{fill:#ffffff;}.b{fill:#211715;}.c{fill:#7a7473;}.d{fill:#b3b3b3;}.e{fill:#f4b3b3;}</style></defs><path class="a" d="M115.691,159.82l-31.441.4c1.706,5.741,3.71,14.685,8.264,27.732,7.335,21.015,17.387,44.467,22.8,56.15l.372.805a593.858,593.858,0,0,0,20.894-58.366,203.17,203.17,0,0,0,6.144-27.062Z"/><path class="a" d="M165.154,81.243a7.547,7.547,0,0,1,6.039-1.766,7.125,7.125,0,0,1,5.124,3.406,10.065,10.065,0,0,1,1.055,4.054,30.189,30.189,0,0,1-3.079,16,19.185,19.185,0,0,1-4.962,6.513,12.715,12.715,0,0,1-5.917,2.667l-1.013.157c-.486,1.817-1.031,3.348-1.3,4.161-1.82,4.939-12.475,22.718-25.571,27.657a67.35,67.35,0,0,0,1.065,11.637c.6,3.438.414,6.512,5.195,8.238.316.115,13.875,6.565,14.359,6.764,0,0,1.018,34.864-42.733,34.864S69.69,171.473,69.69,171.473c.921-.314,16.042-7.386,16.358-7.5,4.781-1.726,4.592-4.8,5.195-8.238a66.843,66.843,0,0,0,1.062-12.2,43.989,43.989,0,0,1-14.987-12.013,51.343,51.343,0,0,1-9.785-19.1l-1.93-.3a12.712,12.712,0,0,1-5.916-2.667,19.188,19.188,0,0,1-4.963-6.513,30.2,30.2,0,0,1-3.079-16A10.081,10.081,0,0,1,52.7,82.883a7.129,7.129,0,0,1,5.124-3.406,7.547,7.547,0,0,1,6.039,1.766s-2.784-42.879,47.919-42.879S165.154,81.243,165.154,81.243Z"/><path class="b" d="M133.138,145.045a96.844,96.844,0,0,0,1.448,13.284c.512,3.214,2.025,5.907,5.07,7.336.181.085,1.349.393,1.5.622-.009-.015-.783-.358-.406-.168.211.106.431.2.645.3q1.19.556,2.377,1.119,3.262,1.54,6.524,3.087c1.544.73,3.074,1.514,4.646,2.185a2.481,2.481,0,0,0,3.283-.861,2.417,2.417,0,0,0-.861-3.284c-3.289-1.4-6.49-3.059-9.723-4.588-1.456-.688-2.905-1.4-4.374-2.059a10.943,10.943,0,0,1-2.52-1.274,3.833,3.833,0,0,1-1.338-2.626,70.167,70.167,0,0,1-1.468-13.072c-.063-3.084-4.863-3.095-4.8,0Z"/><path class="b" d="M89.9,145.045a80.247,80.247,0,0,1-1.366,12.546,10.384,10.384,0,0,1-.447,1.787,3.394,3.394,0,0,1-.78,1.168,9.029,9.029,0,0,1-2.678,1.445c-3.787,1.68-7.521,3.487-11.285,5.219q-1.59.732-3.185,1.457-.508.23-1.018.455c-.712.317.344-.119-.09.037a2.462,2.462,0,0,0-1.676,2.952,2.42,2.42,0,0,0,2.952,1.676c1.569-.562,3.084-1.35,4.6-2.044q3.622-1.663,7.236-3.345c1.63-.755,3.274-1.484,4.893-2.262a.877.877,0,0,0,.171-.077c-.028.023-.924.376-.344.154.284-.109.565-.227.845-.347a10.207,10.207,0,0,0,2.764-1.729,8.467,8.467,0,0,0,2.454-4.229,54.229,54.229,0,0,0,.963-5.711,73.438,73.438,0,0,0,.795-9.152c.063-3.09-4.737-3.09-4.8,0Z"/><path class="c" d="M53.8,115.515c1.6-2.766,4.037-5.042,7.611-4.886a12.2,12.2,0,0,0,4.189,1.493l1.93.3a51.354,51.354,0,0,0,9.785,19.1,43.833,43.833,0,0,0,15.19,12.107c-6.055,7.4-20.591,10.347-30.024,4.735-8.235-4.9-12.5-15.462-11.243-25.144A22.291,22.291,0,0,1,53.8,115.515Z"/><path class="c" d="M168.518,39.385C160.234,17.4,137.372,1.109,113.526,2.448,86.827.949,61.362,21.548,56.21,47.5c-1.4,7-1.233,18.97.037,24.564l1.389,7.451a1.207,1.207,0,0,1,.188-.039,7.61,7.61,0,0,1,4.2.589l2.057-.2c2.674-.259,23.893-5.087,40.937-12.531,14.842-6.482,21.117-10.628,31.027-17.658,2.454,5.315,5.23,12.252,11.858,20.172,3.175,3.793,9.462,10.051,15.9,13.2a7.1,7.1,0,0,1,7.391-3.575,1.8,1.8,0,0,1,.292.061c2.724-10.046.866-24.474-.643-32.037A51.5,51.5,0,0,0,168.518,39.385Z"/><path class="b" d="M58.561,71.427c-1.345-6.089-1.2-13.1-.586-19.43a48.173,48.173,0,0,1,5.971-18.606A56.608,56.608,0,0,1,93.838,7.811,53.255,53.255,0,0,1,103.9,5.255a82.678,82.678,0,0,1,9.985-.425A51.912,51.912,0,0,1,133.71,7.992a56.638,56.638,0,0,1,29.65,25.863,56.62,56.62,0,0,1,5.911,18.478,81.132,81.132,0,0,1,.846,21.614,34.687,34.687,0,0,1-.945,4.95c-.792,2.989,3.837,4.264,4.628,1.276,2.009-7.59,1.723-15.746.857-23.483-.788-7.046-2.068-13.948-4.86-20.5A61,61,0,0,0,140.265,5.6,56.645,56.645,0,0,0,119.044.049c-1.847-.1-3.673,0-5.518,0-1.786,0-3.553-.1-5.341-.009A54.933,54.933,0,0,0,97.272,1.726,61.338,61.338,0,0,0,62.48,26.616a55.682,55.682,0,0,0-8.514,19.9,71.159,71.159,0,0,0-.725,21.707,41.816,41.816,0,0,0,.691,4.48c.666,3.015,5.295,1.739,4.629-1.276Z"/><path class="b" d="M59.584,108.351c-5.133.7-8.164,5.588-9.676,10.092a27.846,27.846,0,0,0-.455,15.147,27.246,27.246,0,0,0,8.738,14.636,24.592,24.592,0,0,0,16.54,5.452A28.027,28.027,0,0,0,92.6,147.007c2.308-2.064-1.1-5.449-3.394-3.4-6.818,6.1-18.773,7.23-26.412,2.111a21.47,21.47,0,0,1-8.133-11.313,24.143,24.143,0,0,1-.688-12.756c.934-3.822,2.8-8.118,6.884-8.675a2.413,2.413,0,0,0,1.676-2.952,2.463,2.463,0,0,0-2.952-1.676Z"/><path class="b" d="M96.726,55.513c-2.074,6.318-6.183,12.369-11.882,15.878a2.4,2.4,0,1,0,2.423,4.145c6.847-4.217,11.607-11.188,14.088-18.747a2.4,2.4,0,0,0-4.629-1.276Z"/><path class="d" d="M227.8,277.235c-2.273-9.844-10.238-33.547-13.509-45-3.9-13.652-11.04-39.662-18.614-45.182-2.152-1.718-4.572-2.582-6.992-3.9A391.571,391.571,0,0,0,150,164.213c-3.172-2.653-6.031-4.591-7.278-4.735a203.17,203.17,0,0,1-6.144,27.062A593.224,593.224,0,0,1,115.682,244.9l-.371-.8c-5.41-11.683-15.462-35.135-22.8-56.15C87.96,174.9,85.956,165.96,84.25,160.218c-1.619.079-6.232,3.717-10.621,8-10.4,4.714-19.426,9.477-29.474,14.942-2.067,1.124-4.428,2.135-6.415,3.477-7.811,4.436-15.25,31.558-19.263,45.6-3.271,11.449-11.235,35.152-13.509,45C2.3,288.783-.218,296.6,8,305.727c3.912,4.347,9.329,7.719,14.011,10.294,3.515,1.933,10.525,5.706,18.056,9.622,3.1,1.612,6.292,3.249,9.362,4.792-1.808,13.395-3.631,26.429-4.4,33.362,15.163,1.969,35.439,2.971,49.448,1.719a13.974,13.974,0,0,0,5.634-1.353,9.551,9.551,0,0,0,4.266-4.524c4.557-11.209,9.728-26.813,12.385-36.217l.309-.791c1.56,11.274,3.285,21.983,5.049,29.934.944,4.254,1.827,10.132,4.272,12.463,4.089,2.454,13.017,3.071,18.605,3.067,14.466-.011,31.717-1.84,42.749-4.632-.786-7.018-2.582-19.863-4.36-33.055,10.509-5.283,22.408-11.662,27.362-14.387,4.682-2.575,10.1-5.947,14.011-10.294C232.981,296.6,230.462,288.783,227.8,277.235ZM54.015,289.929c-4.74-2.777-9.079-5.472-11.887-7.315l.053-.377c.44-3.166,2.758-9.013,5.754-15.526.678-1.475,1.391-2.984,2.126-4.5,1.315,8.445,2.632,17,3.875,25.4A15.2,15.2,0,0,1,54.015,289.929Zm124.792-.026a14.871,14.871,0,0,1,.078-2.3c1.238-8.37,2.549-16.889,3.86-25.3.772,1.6,1.521,3.186,2.23,4.733,2.925,6.382,5.175,12.089,5.607,15.2,0,0,.019.134.053.377C187.838,284.449,183.522,287.131,178.807,289.9Z"/><path class="b" d="M116.066,249.944c5.143-11.393,9.541-23.136,13.707-34.915,4.786-13.529,9.454-27.231,12.644-41.238,1.032-4.532,1.832-9.1,2.618-13.675l-2.952,1.676c.271.039,1.062.393.389.065.389.19.771.388,1.144.61a30.512,30.512,0,0,1,2.8,1.93,76.451,76.451,0,0,1,6.569,5.752,52.046,52.046,0,0,1,5.629,6.268c.316.444.622.9.9,1.368.13.221.257.444.374.673.613,1.205-.325-.368.3-1.5-.189.345.394-.418.107-.123-.145.149-.272.32-.411.476-.392.442-.8.869-1.212,1.294-2.4,2.482-4.879,4.9-7.442,7.2a2.413,2.413,0,0,0-.375,2.909c2.217,3.207,4.655,6.125,6.914,9.081.05.065.095.219.159.267-.35-.265-.16-1.732-.184-1.647.263-.927.277-.572.13-.338-.17.273-.311.573-.47.853-.617,1.09-1.256,2.167-1.894,3.244-5.259,8.875-10.641,17.677-16,26.492q-5.458,8.979-10.926,17.954c-1.61,2.645,2.539,5.06,4.145,2.422q9.82-16.129,19.615-32.276c2.414-3.991,4.827-7.983,7.206-11.994.655-1.1,1.31-2.208,1.945-3.323a5.26,5.26,0,0,0,.972-2.435,4.322,4.322,0,0,0-1.11-2.44c-.752-1.035-1.545-2.041-2.332-3.05-1.482-1.9-2.752-3.391-4.026-5.233l-.375,2.908c2.5-2.249,4.919-4.6,7.261-7.015a16.138,16.138,0,0,0,2.384-2.707c.837-1.4.181-2.751-.561-4.026a38.61,38.61,0,0,0-5.839-7.2,78.685,78.685,0,0,0-7.624-6.908c-1.884-1.489-4.4-3.818-6.892-4.176-1.181-.17-2.711.275-2.952,1.676A250.258,250.258,0,0,1,132.9,190.4q-6.222,20.16-13.851,39.862c-2.242,5.806-4.564,11.586-7.125,17.259a2.473,2.473,0,0,0,.861,3.284,2.418,2.418,0,0,0,3.283-.861Z"/><path class="b" d="M47.433,363.8c.916-8.264,2.04-16.012,3.143-24.129,1.393-10.25,2.8-20.5,4.043-30.767.5-4.117.977-8.237,1.356-12.366a63.468,63.468,0,0,0,.438-7.926,63.358,63.358,0,0,0-.989-7.179q-.891-5.921-1.8-11.838Q51.8,257.766,49.93,245.947c-2.16-13.788-4.349-27.576-6.229-41.406q-.274-2.026-.535-4.056a2.479,2.479,0,0,0-2.4-2.4,2.413,2.413,0,0,0-2.4,2.4c1.733,13.461,3.832,26.873,5.925,40.281q3.671,23.5,7.262,47.017c.16,1.052,0-.5.03.253.008.191.024.382.03.573.017.485.011.971,0,1.457-.033,1.32-.122,2.639-.223,3.956-.3,3.855-.726,7.7-1.173,11.54-1.158,9.948-2.507,19.857-3.844,29.71-1.19,8.764-2.437,17.524-3.484,26.307q-.132,1.108-.255,2.218a2.415,2.415,0,0,0,2.4,2.4,2.457,2.457,0,0,0,2.4-2.4Z"/><path class="a" d="M174.094,227.744H149.068c0,1.813.04,6.6.04,8.785,4.177,0,21.843.041,24.986.041C174.094,233.547,174.063,228.105,174.094,227.744Z"/><path class="b" d="M174.094,225.344H149.068a2.435,2.435,0,0,0-2.4,2.4c0,2.928.038,5.857.04,8.785a2.435,2.435,0,0,0,2.4,2.4c8.329,0,16.657.04,24.986.041a2.435,2.435,0,0,0,2.4-2.4c0-2.93-.163-5.9,0-8.826.172-3.086-4.628-3.077-4.8,0-.163,2.926,0,5.9,0,8.826l2.4-2.4c-8.329,0-16.657-.04-24.986-.041l2.4,2.4c0-2.928-.038-5.857-.04-8.785l-2.4,2.4h25.026C177.182,230.144,177.188,225.344,174.094,225.344Z"/><path class="b" d="M174.094,225.344H149.068a2.435,2.435,0,0,0-2.4,2.4c0,2.928.038,5.857.04,8.785a2.435,2.435,0,0,0,2.4,2.4c8.329,0,16.657.04,24.986.041a2.435,2.435,0,0,0,2.4-2.4c0-2.93-.163-5.9,0-8.826.172-3.086-4.628-3.077-4.8,0-.163,2.926,0,5.9,0,8.826l2.4-2.4c-8.329,0-16.657-.04-24.986-.041l2.4,2.4c0-2.928-.038-5.857-.04-8.785l-2.4,2.4h25.026C177.182,230.144,177.188,225.344,174.094,225.344Z"/><path class="b" d="M190.188,363.8c-.919-8.29-2.112-16.553-3.235-24.817C185.588,328.943,184.225,319,183,308.9c-.5-4.117-.977-8.237-1.356-12.366a63.66,63.66,0,0,1-.438-7.926c.006-.178.02-.355.027-.532.037-.818-.124.741.033-.294.3-2,.6-4,.9-6q.893-5.922,1.808-11.841,1.824-11.81,3.687-23.614c2.148-13.718,4.322-27.436,6.181-41.2q.314-2.32.614-4.643a2.413,2.413,0,0,0-2.4-2.4,2.46,2.46,0,0,0-2.4,2.4c-1.717,13.33-3.818,26.61-5.892,39.888-2.429,15.546-5,31.079-7.2,46.66a32.345,32.345,0,0,0,.071,6.989c.3,3.855.725,7.7,1.172,11.54,1.181,10.145,2.562,20.266,3.935,30.386,1.188,8.756,2.348,16.868,3.393,25.631q.132,1.108.256,2.218a2.471,2.471,0,0,0,2.4,2.4,2.416,2.416,0,0,0,2.4-2.4Z"/><path class="b" d="M180.525,263.206c1.805,3.734,3.57,7.5,5.116,11.347a37.486,37.486,0,0,1,2.627,8.322,2.416,2.416,0,0,0,2.952,1.676A2.462,2.462,0,0,0,192.9,281.6a38.474,38.474,0,0,0-2.751-8.63c-1.673-4.128-3.538-8.176-5.477-12.186a2.421,2.421,0,0,0-3.283-.861,2.45,2.45,0,0,0-.861,3.284Z"/><path class="b" d="M48.094,260.783c-1.939,4.01-3.8,8.058-5.477,12.186a38.488,38.488,0,0,0-2.75,8.63,2.478,2.478,0,0,0,1.676,2.952,2.417,2.417,0,0,0,2.952-1.676,37.486,37.486,0,0,1,2.627-8.322c1.546-3.85,3.311-7.613,5.116-11.347a2.463,2.463,0,0,0-.861-3.284,2.421,2.421,0,0,0-3.283.861Z"/><path class="b" d="M89.6,184.368a86.132,86.132,0,0,0,18.042,1.092,2.456,2.456,0,0,0,2.4-2.4,2.421,2.421,0,0,0-2.4-2.4,80.182,80.182,0,0,1-16.766-.921,2.479,2.479,0,0,0-2.952,1.676,2.418,2.418,0,0,0,1.676,2.953Z"/><path class="b" d="M37.976,189.422c2.621-2.021,5.762-3.305,8.657-4.877q4.623-2.509,9.278-4.961c6.23-3.266,12.534-6.388,18.939-9.3A2.419,2.419,0,0,0,75.711,167a2.458,2.458,0,0,0-3.284-.861c-6.4,2.911-12.708,6.032-18.939,9.3q-4.659,2.442-9.278,4.962c-2.9,1.571-6.035,2.856-8.657,4.876a2.483,2.483,0,0,0-.861,3.284,2.417,2.417,0,0,0,3.284.861Z"/><path class="b" d="M148.7,166.253c7.933,3.294,15.72,6.926,23.374,10.823,3.671,1.869,7.314,3.8,10.942,5.746,1.884,1.014,3.748,2.079,5.662,3.036a34.22,34.22,0,0,1,5.783,3.271,2.413,2.413,0,0,0,3.284-.861,2.462,2.462,0,0,0-.861-3.283,34.19,34.19,0,0,0-5.784-3.271c-1.978-.99-3.9-2.092-5.853-3.139-3.689-1.983-7.393-3.939-11.127-5.835q-11.858-6.023-24.144-11.116a2.415,2.415,0,0,0-2.952,1.677,2.462,2.462,0,0,0,1.676,2.952Z"/><path class="b" d="M141.642,171.689c2.514-.455,4.877-1.675,7.321-2.395a18.455,18.455,0,0,1,1.9-.465c.093-.017.185-.033.278-.048.259-.039.183-.03-.231.028.052-.052.33-.034.395-.039.29-.021.575-.013.864-.008.367.006.161.213-.185-.033a1.27,1.27,0,0,0,.317.069c.068.018.134.039.2.062q.34.127-.291-.126a1.5,1.5,0,0,0,.258.147c.352.164-.487-.43-.145-.095s-.237-.489-.093-.13a1.9,1.9,0,0,0,.151.283c-.162-.4-.2-.488-.121-.252.024.078.045.156.063.236a2.424,2.424,0,0,0,2.953,1.676,2.45,2.45,0,0,0,1.676-2.952,4.733,4.733,0,0,0-3.478-3.5,10.362,10.362,0,0,0-4.892.278,46.443,46.443,0,0,0-4.494,1.474,23.127,23.127,0,0,1-3.718,1.166,2.411,2.411,0,0,0-1.676,2.952,2.464,2.464,0,0,0,2.952,1.676Z"/><path class="b" d="M103.825,247.566l0,0a2.418,2.418,0,0,0,3.394,0,2.46,2.46,0,0,0,0-3.394c-5.235-6.66-10.581-13.236-15.863-19.858-7.108-8.911-14.258-17.794-21.251-26.8l-.384-.5c.3.384.256.333.011.013-.168-.219-.336-.438-.5-.659-1.044-1.4.346.883-.3,1.507a4.587,4.587,0,0,0,.432-.677c.092-.133.189-.263.284-.393.009-.014.421-.558.173-.236.673-.874,1.381-1.721,2.088-2.567,1.21-1.445,2.445-2.869,3.676-4.3a2.437,2.437,0,0,0,0-3.394c-2.364-2.113-4.811-4.131-7.183-6.234-.446-.4-.891-.791-1.323-1.2-.166-.158-.325-.322-.49-.48-.325-.31-.133-.286.03.086.68,1.562-.261,2.663.3,1.553.1-.194.2-.384.309-.573.3-.523.626-1.027.968-1.52a52.167,52.167,0,0,1,5.286-6.189,81.949,81.949,0,0,1,6.67-6.213,25.98,25.98,0,0,1,2.881-2.15c.419-.27.851-.5,1.286-.743.518-.285-.288.108.011,0,.251-.094.824-.11-.08-.036l-2.314-1.762c1.275,4.31,2.356,8.676,3.593,13,1.821,6.358,3.892,12.634,6.132,18.856,4.529,12.582,9.533,25,14.793,37.289,2.2,5.133,4.44,10.246,6.784,15.313a2.419,2.419,0,0,0,3.284.861,2.455,2.455,0,0,0,.861-3.283c-4.62-9.988-8.911-20.132-13.017-30.341-5.044-12.539-9.886-25.207-13.691-38.185-1.439-4.908-2.66-9.879-4.111-14.783a2.431,2.431,0,0,0-2.314-1.762c-2.374.194-4.417,1.914-6.221,3.32a75.815,75.815,0,0,0-7.311,6.588,61.3,61.3,0,0,0-6.534,7.615,16.738,16.738,0,0,0-1.69,2.892c-.736,1.677-.084,2.823,1.127,3.983,2.741,2.625,5.746,4.972,8.575,7.5v-3.394c-2.36,2.734-4.838,5.431-6.919,8.388-.752,1.068-1.3,2.321-.56,3.575a8.194,8.194,0,0,0,.567.773c2.592,3.422,5.284,6.771,7.95,10.136q12.128,15.309,24.339,30.55c2.084,2.608,4.192,5.2,6.255,7.824l3.394-3.394,0,0a2.415,2.415,0,0,0-3.394,0,2.456,2.456,0,0,0,0,3.394Z"/><path class="b" d="M111.922,247.521c-1.414,3.07-3.01,6.247-3.58,9.61a24.055,24.055,0,0,0-.277,5.525c.164,2.69.427,5.377.675,8.06q1.475,15.963,3.379,31.884c1.5,12.654,3.13,25.306,5.256,37.872.92,5.441,2.015,10.842,3.176,16.237.7,3.267,1.47,7.227,3.873,9.73a9.952,9.952,0,0,0,4.242,2.146,33.233,33.233,0,0,0,5.1,1.109c7.71,1.144,15.559.884,23.314.415a200.066,200.066,0,0,0,25.161-3q2.553-.483,5.081-1.081c3-.714,1.733-5.343-1.276-4.628a157.977,157.977,0,0,1-22.583,3.428,157.952,157.952,0,0,1-23.512.708A42.411,42.411,0,0,1,130.1,364a12.493,12.493,0,0,1-1.665-.609c-.663-.314-.606-.264-.985-.886a15.488,15.488,0,0,1-1.579-4.161c-1.434-5.394-2.428-10.969-3.4-16.464-2.084-11.8-3.66-23.688-5.1-35.581q-1.975-16.274-3.542-32.6c-.3-3.188-.6-6.377-.851-9.57a20.37,20.37,0,0,1,1-9.332c.609-1.656,1.354-3.258,2.091-4.86a2.47,2.47,0,0,0-.861-3.284,2.419,2.419,0,0,0-3.283.861Z"/><path class="b" d="M114.452,322.784a344.015,344.015,0,0,1-12.108,35.533c-1.144,2.817-3.689,4.281-6.612,4.673-2.942.394-5.955.479-8.918.577-6.6.217-13.219.085-19.817-.245-7.341-.366-14.674-.985-21.964-1.925a2.412,2.412,0,0,0-2.4,2.4,2.461,2.461,0,0,0,2.4,2.4,262.829,262.829,0,0,0,41.006,2.193c3.093-.088,6.2-.227,9.275-.554,3.748-.4,7.237-1.6,9.672-4.641,2.067-2.582,3.013-6.149,4.166-9.216q1.821-4.839,3.5-9.729c2.309-6.674,4.5-13.4,6.425-20.19.843-2.978-3.787-4.248-4.629-1.276Z"/><path class="b" d="M122.487,265.242c0-.2.015-.4.03-.606.033-.426-.116.656-.03.237.021-.1.038-.2.061-.3.047-.2.111-.387.175-.58.132-.4-.279.574-.086.2.062-.119.121-.239.191-.355.052-.087.11-.169.165-.254.229-.347-.413.467-.123.167.145-.15.3-.286.449-.433-.539.541-.182.142.051.009.1-.055.211-.1.3-.155q-.594.241-.247.106.115-.042.231-.078c.247-.076.516-.094.759-.173-.6.195-.327.042-.075.026.15-.009.3-.016.452-.014s.286.019.429.027c.509.032-.582-.125-.1-.009.281.069.56.177.84.239-.591-.131-.376-.168-.148-.05.1.052.2.108.293.168.511.321-.4-.372.038.018.161.144.291.31.44.464-.48-.5-.248-.329-.127-.142a4.1,4.1,0,0,1,.214.368c.1.185.171.518-.062-.182.034.1.079.2.113.3a5.7,5.7,0,0,1,.172.64c.022.11.035.223.059.333-.165-.751-.051-.395-.034-.186a6.341,6.341,0,0,1,.02.742c-.011.271-.17.683.038-.132-.044.171-.062.349-.108.521s-.135.35-.172.525c.125-.6.209-.47.09-.227-.057.115-.118.228-.184.338-.051.083-.106.163-.159.245-.223.346.412-.477.133-.171-.138.152-.28.294-.428.437-.3.293.513-.349.155-.114-.091.06-.179.122-.272.178-.064.038-.129.075-.194.109-.538.285.439-.135.046,0a6.808,6.808,0,0,1-.716.206c-.276.058-.456-.055.107,0a3.424,3.424,0,0,0-.426.033c-.272.012-.591-.06-.855-.02l.376.053c-.084-.012-.168-.027-.251-.044a4.215,4.215,0,0,1-.47-.123c-.229-.074-.421-.262.146.077-.125-.074-.263-.128-.388-.2-.09-.054-.174-.124-.266-.175.593.332.332.267.164.115-.075-.068-.148-.139-.217-.213-.164-.173-.344-.549.055.1-.121-.2-.256-.38-.363-.587-.045-.087-.082-.178-.127-.264.375.72.138.334.066.122a5.943,5.943,0,0,1-.176-.64c-.02-.091-.033-.183-.053-.274-.086-.382.066.739.026.191-.014-.2-.028-.4-.029-.595a2.4,2.4,0,1,0-4.8,0c.018,2.541,1.167,5.3,3.535,6.5,2.774,1.4,6.715.962,8.781-1.5a7.551,7.551,0,0,0,1.274-7.465,6.781,6.781,0,0,0-2.843-3.553,7.822,7.822,0,0,0-5.158-.832,6.546,6.546,0,0,0-4.368,2.7,7.226,7.226,0,0,0-1.221,4.156,2.4,2.4,0,1,0,4.8,0Z"/><path class="e" d="M133.381,164.932a29.374,29.374,0,0,1-10.641,3.78c-10.239,1.66-22.808,1.073-27.8.818-6.663-.341-9.375-3.786-8.83-7.466,1.347-4.3,2.88-7.678,4.211-11.557a2.945,2.945,0,0,1,3.022-2.119,143.984,143.984,0,0,0,28.563.581c4.821-.434,9.809-2.634,13.834-2.019,2.623.4,2.735,3.248,3.662,7.754C140.2,158.578,137.707,162.255,133.381,164.932Z"/><path class="b" d="M132.17,162.86c-7.447,4.52-17.041,4.542-25.494,4.58-3.481.015-6.962-.08-10.439-.246a16.013,16.013,0,0,1-4.775-.716,8.584,8.584,0,0,1-1.55-.78,5.829,5.829,0,0,1-.667-.619,1.568,1.568,0,0,1-.424-.592,4.176,4.176,0,0,1-.216-.421c.047.111.116.349-.008-.08-.045-.157-.179-.906-.137-.5a4.557,4.557,0,0,1,.4-2.137c.743-2.217,1.6-4.39,2.439-6.572.384-1,.761-2,1.118-3.013.244-.692.263-.9.923-.976a18.023,18.023,0,0,1,3.407.327q1.913.172,3.827.314a139.725,139.725,0,0,0,14.585.351c2.539-.081,5.1-.195,7.622-.509,2.434-.3,4.8-.911,7.189-1.438a22.457,22.457,0,0,1,3.483-.567,9.922,9.922,0,0,1,1.542,0c1.326.131.414.052.343.041.532.084-.177-.176.246.077-.447-.267.34.391.031.024.333.4.189.242.361.77a23.188,23.188,0,0,1,.651,2.808c.342,1.776.841,3.425.1,5.16a11.2,11.2,0,0,1-4.556,4.712c-2.6,1.648-.2,5.8,2.422,4.145,3.96-2.508,7.814-6.575,7.31-11.639a31.656,31.656,0,0,0-1.3-6.462,5.883,5.883,0,0,0-3.66-4.128c-2.334-.739-5.071-.226-7.4.247a76.5,76.5,0,0,1-7.64,1.546,118.285,118.285,0,0,1-17.283.306c-2.7-.131-5.4-.334-8.1-.58s-5.311-.779-7.327,1.477a9.513,9.513,0,0,0-1.624,3.328c-.484,1.338-1,2.662-1.512,3.989-.893,2.316-2.262,4.955-2.4,7.453-.23,4.052,2.617,7.1,6.225,8.452,3.528,1.318,7.743,1.1,11.467,1.189a138.408,138.408,0,0,0,16.267-.43c5.93-.551,11.816-1.614,16.98-4.748C137.229,165.4,134.82,161.251,132.17,162.86Z"/><path class="e" d="M133.418,155.436c-.809.347-1.363.753-1.516,1.339l-1.26.056c-3.912.072-12.842,1.058-16.4,3.3-4.791,3.014-3.228,6.326-1.181,11.751,1.049,2.782,1.959,5.8,3.564,7.714l-.219.269a2.39,2.39,0,0,0-.589,3.893c3.9,3.5,10.382,6.157,12.658,7.445a2.862,2.862,0,0,0,3.573-.6,29.166,29.166,0,0,0,3.4-5.377c2.335-4.882,4.228-8.314,6.227-12.312l.891-1.781,1.85,1.41a126.166,126.166,0,0,0,11.989,6.214,3.689,3.689,0,0,0,3.72-.695,46.675,46.675,0,0,0,9.481-8.526c1.538-1.772-.081-3.551-2.349-4.152l-.332-.205a3.76,3.76,0,0,0,.081-.9c.283-5.8-1.6-15.4-6.659-17.356-5.1-.741-13.024,4.3-18.382,6.985l-.539.421c-1.117-.725-3.67-.259-5.7.338A21.734,21.734,0,0,0,133.418,155.436Z"/><path class="b" d="M130.642,154.431a52.958,52.958,0,0,0-13.526,1.934c-4.258,1.246-8.763,4.1-8.409,9.125a25.442,25.442,0,0,0,2.037,7.028,53.244,53.244,0,0,0,2.633,6.5,9.148,9.148,0,0,0,4.931,4.579c2.576.884,5.566.09,8.048-.749a32.275,32.275,0,0,0,8.487-4,66.534,66.534,0,0,0,5.691-4.664c2.31-2.061-1.094-5.446-3.394-3.394-2.837,2.531-5.675,4.936-9.238,6.371-2.187.881-4.6,1.93-6.986,2.019a3.1,3.1,0,0,1-2.954-1.816,25.411,25.411,0,0,1-2.138-4.9c-.72-1.975-1.587-3.925-2.107-5.965a5.215,5.215,0,0,1-.24-1.836,2.482,2.482,0,0,1,.631-1.372,7.955,7.955,0,0,1,3.987-2.213,46.859,46.859,0,0,1,12.547-1.851c3.084-.068,3.095-4.868,0-4.8Z"/><path class="b" d="M135.085,152.353c-2.4.71-5.669,1.711-5.626,4.8a23.575,23.575,0,0,0,.966,5.44,28.845,28.845,0,0,0,2.131,5.871,8.182,8.182,0,0,0,1.5,2.141,5.843,5.843,0,0,0,3.518,1.388,12.667,12.667,0,0,0,3.863-.332,15.167,15.167,0,0,0,4.1-1.406,3.816,3.816,0,0,0,2.155-2.2,5.18,5.18,0,0,0,.2-1.809,28.871,28.871,0,0,0-2.337-9.224,12.256,12.256,0,0,0-2.313-4.248c-2.081-2.03-5.7-1.131-8.16-.418a2.4,2.4,0,1,0,1.276,4.628c.506-.146,1.014-.281,1.528-.393.24-.052.48-.1.722-.142.059-.01.555-.077.272-.045-.236.027.214-.015.257-.018.217-.016.435-.025.653-.022.1,0,.2.007.308.01.465.014.012.012-.074-.014.3.09.385.158.053-.031.185.105-.634-.405-.274-.207.057.031.085.11.136.147.206.155-.37-.557-.162-.2.1.176.223.343.325.522.268.468.492.958.715,1.449s-.156-.4,0,0c.053.133.109.266.162.4q.193.487.371.98.361,1,.671,2.008a32.465,32.465,0,0,1,.957,3.835c.026.148.049.3.073.445.077.463-.028-.3-.02-.158.014.251.053.5.062.753.007.193-.02.392-.008.583.019.329.116-.705.039-.309-.01.053-.068.158-.06.208-.039-.246.4-.744.477-.822,0,0,.683-.42.255-.221-.233.108-.453.259-.682.378-.156.081-.313.158-.471.235-.384.187.245-.089-.142.069a13.7,13.7,0,0,1-3.31.789c.4-.052-.11,0-.247.012-.237.016-.474.024-.712.02-.092,0-.678-.014-.338,0,.309.01.039.008-.036-.01-.113-.026-.227-.047-.339-.078s-.218-.081-.325-.1c.032.006.391.219.187.078s.358.407.068.09a3.865,3.865,0,0,0-.269-.293c.017,0,.3.437.185.238-.043-.075-.1-.146-.151-.218a9.2,9.2,0,0,1-.481-.826c-.087-.168-.17-.338-.251-.51-.1-.2-.253-.577-.071-.135-.321-.78-.6-1.575-.855-2.38a37.358,37.358,0,0,1-1.244-5.27c-.088-.549.036.391,0,.013-.015-.163-.029-.328-.048-.49a1.436,1.436,0,0,0-.01-.187c-.063-.226-.122.553-.012.155-.059.215-.515.763-.177.441.181-.172-.168.137-.172.138a2.3,2.3,0,0,0,.3-.174c.111-.059.224-.109.337-.163-.209.1-.233.091,0,.012.606-.208,1.216-.4,1.83-.581a2.4,2.4,0,1,0-1.276-4.628Z"/><path class="b" d="M128.341,169.632c1.71-.66,3.363-1.449,5.032-2.2a2.4,2.4,0,0,0,1.1-1.434,2.452,2.452,0,0,0-.242-1.849,2.417,2.417,0,0,0-1.434-1.1l-.638-.086a2.385,2.385,0,0,0-1.211.328c-1.137.512-2.263,1.048-3.411,1.534l.573-.242c-.347.147-.7.29-1.048.425a2.687,2.687,0,0,0-1.435,1.1,2.456,2.456,0,0,0-.242,1.85,2.429,2.429,0,0,0,1.1,1.434,2.347,2.347,0,0,0,1.85.242Z"/><path class="b" d="M143.169,155.981c3.277-1.654,6.445-3.524,9.8-5.012a22.756,22.756,0,0,1,4.772-1.573,7.381,7.381,0,0,1,1.765-.143,1.92,1.92,0,0,0,.419.024c.365-.093-.386-.284-.241-.026a2.811,2.811,0,0,0,.7.428,8.451,8.451,0,0,1,2.121,2.937,19.624,19.624,0,0,1,1.4,4.218,27.26,27.26,0,0,1,.644,4.281,20.879,20.879,0,0,1,.022,3.93c-.1.584-.112.747-.593.973a12.826,12.826,0,0,1-3.212.614,20.954,20.954,0,0,1-6.441.262,2.475,2.475,0,0,0-2.953,1.677,2.42,2.42,0,0,0,1.677,2.952,25.908,25.908,0,0,0,7.7-.077c2.3-.313,5.092-.455,6.847-2.161,2.741-2.665,1.908-7.77,1.411-11.165-.556-3.8-1.726-7.707-4.182-10.726a7.373,7.373,0,0,0-4.767-2.905,14.515,14.515,0,0,0-5.709.837c-4.805,1.55-9.131,4.248-13.612,6.51-2.758,1.392-.331,5.535,2.422,4.145Z"/><path class="b" d="M145.984,162.218c.775-.408,1.55-.817,2.357-1.16l-.574.242a11.616,11.616,0,0,1,1.861-.613,2.4,2.4,0,0,0,.574-4.386,2.584,2.584,0,0,0-1.85-.242,20.292,20.292,0,0,0-4.791,2.015,2.4,2.4,0,0,0,.574,4.386,2.6,2.6,0,0,0,1.849-.242Z"/><path class="b" d="M115.192,177.79a4.937,4.937,0,0,0-2.533,4.3c.016,1.894,1.15,3.171,2.555,4.277a48.785,48.785,0,0,0,8.62,5.182c2.63,1.3,5.43,3.325,8.414,1.857,1.6-.784,2.64-2.483,3.562-3.942a41.836,41.836,0,0,0,2.226-4.114c1.835-3.777,3.823-7.475,5.7-11.227,1.381-2.754-2.759-5.188-4.145-2.423-1.708,3.407-3.508,6.767-5.193,10.185-.7,1.416-1.357,2.842-2.157,4.2-.4.675-1.507,3.1-2.4,3.088-.331-.007-.784-.384-1.066-.528-.514-.262-1.033-.513-1.551-.768-1.366-.671-2.73-1.347-4.067-2.076a37.646,37.646,0,0,1-4.452-2.767c-.379-.282-1-.771-1.221-.894s.106-.384-.03-.111c-.036.072-.45.253.158-.1,2.673-1.546.259-5.695-2.423-4.145Z"/><path class="b" d="M166.612,167.7a2.894,2.894,0,0,1,1.167.533s.022-.2.023-.215c0-.039-.683.708-.506.511-1.05,1.164-2.12,2.307-3.268,3.376q-1.359,1.266-2.833,2.4c-.592.456-1.2.9-1.8,1.333-.454.328-1.167.993-1.785.977-.9-.023-2.134-.935-2.927-1.322q-1.922-.936-3.822-1.911a38.3,38.3,0,0,1-5.238-2.913,2.418,2.418,0,0,0-3.284.861,2.456,2.456,0,0,0,.861,3.284,49.052,49.052,0,0,0,7.142,3.877c1.516.758,3.037,1.515,4.581,2.215a6.242,6.242,0,0,0,6.571-.69,52.319,52.319,0,0,0,8.474-7.294c1.489-1.62,3.1-3.307,2.491-5.691-.546-2.128-2.6-3.374-4.569-3.962-2.966-.885-4.234,3.746-1.276,4.629Z"/><path class="a" d="M108.658,316.347c-3.408-2.181-11.694-2-15.7-3.385-.122-.042-.235-.093-.353-.138-2.1,6.13-8.1,19.246-11.865,26.289,2.186,1.566,4.442,2.993,6.549,4.621,0,0,8.02,5.431,14.051,6.248,4.2.57,15.027-3.271,17.787-15.333S108.658,316.347,108.658,316.347Z"/><path class="b" d="M104.123,325.122q-2.03-.783-4.1-1.439a2.4,2.4,0,0,0-2.952,1.677,2.431,2.431,0,0,0,.241,1.849,2.587,2.587,0,0,0,1.435,1.1q2.075.653,4.1,1.438a1.812,1.812,0,0,0,.957.043,1.774,1.774,0,0,0,.892-.285,2.4,2.4,0,0,0,.861-3.283l-.375-.486a2.4,2.4,0,0,0-1.059-.617Z"/><path class="a" d="M139.473,313.453c-5.642.739-10.311-.022-16.178-.333-3.14-.167-8.6,2.146-11.366,3.659-2.358,1.292-4.77,3.544-5.179,6.743,0,0-.164,3.516-.29,6.227-5.661,2.693-11.195,5.415-12.983,6.4A9.472,9.472,0,0,0,90,339.129c-1.224,1.82-1.515,4.751,1.361,5.556l.635.178-.907.408c-1.792.806-2.927,2.9-1.595,4.772,1.2,1.693,3.312,1.938,5.195,1.624l1.921-.32-.2.35a6.2,6.2,0,0,0-.874,3.353c.141,1.688,2.37,2.563,4.007,2.527a22.753,22.753,0,0,0,5.622-1.72l.477-.188-1.007,1.06c-1.65,1.738.762,4.521,3.918,4.176a29.349,29.349,0,0,0,6.644-1.635c3.11-1.193,11.541-4.9,19.193-8.962a126.682,126.682,0,0,0,11.9-7.54c1.7-1.127,3.326-2.332,4.905-3.6A252.486,252.486,0,0,1,139.473,313.453Z"/><path class="b" d="M118.855,321.484c-5.351,2.191-10.569,4.731-15.78,7.231-2.571,1.234-5.138,2.478-7.689,3.753-2.254,1.127-4.709,2.2-6.417,4.116-3.019,3.38-3.19,8.817,1.757,10.415,2.947.952,4.209-3.681,1.276-4.628a1.088,1.088,0,0,1-.4-.19c-.224-.155.057.193-.034-.035-.152-.377.036.287-.042-.116a1.6,1.6,0,0,1,0-.391c-.017.224.137-.542.188-.673a6.8,6.8,0,0,1,2.83-2.667c1.479-.832,3.016-1.566,4.536-2.317q7.353-3.637,14.8-7.077,1.828-.846,3.666-1.67.822-.368,1.646-.726l.634-.272c.324-.138-.383.161-.076.033l.38-.157a2.478,2.478,0,0,0,1.677-2.952,2.417,2.417,0,0,0-2.953-1.677Z"/><path class="b" d="M112.149,332.562c-7.1,3.62-14.355,7.01-21.6,10.333-2.733,1.253-4.84,3.986-3.736,7.118,1.256,3.563,5.239,4.637,8.622,3.95a24.818,24.818,0,0,0,4.415-1.542c2.281-.94,4.535-1.946,6.775-2.979,4.042-1.864,8.043-3.816,12.036-5.784a2.424,2.424,0,0,0,.861-3.284,2.449,2.449,0,0,0-3.283-.861c-6.595,3.251-13.4,6.816-20.029,9.2-1.249.45-2.974,1.117-4.232.4-1.746-1,.6-1.887,1.508-2.308,3.591-1.661,7.159-3.371,10.728-5.079,3.459-1.655,6.941-3.276,10.358-5.017,2.753-1.4.327-5.546-2.422-4.145Z"/><path class="b" d="M94.341,350.485a7.834,7.834,0,0,0-1.094,5.348,5.342,5.342,0,0,0,3.525,3.646,8.744,8.744,0,0,0,6.106-.231,122.543,122.543,0,0,0,14.443-6.177c2.173-1.043,4.347-2.1,6.45-3.28,2.695-1.511.278-5.658-2.422-4.145a149.629,149.629,0,0,1-14.365,6.888,52.773,52.773,0,0,1-6.486,2.425c-.339.094-.7.138-1.037.243-.37.117.609.063.085-.025a6.382,6.382,0,0,1-.892-.117,1.961,1.961,0,0,1-.6-.25c-.114-.081-.223-.313-.158-.108-.156-.492.345-1.357.586-1.794,1.5-2.706-2.649-5.13-4.144-2.423Z"/><path class="d" d="M210.752,316.021c-6.029,3.316-22.345,12.045-33.925,17.622-5.543,2.67-21.547,8.967-23.6,9-3.284-4.794-13.7-27.282-14.745-32.379,3.689-2.352,20.9-9.9,26.377-12.658,11.149-5.614,26.72-15.341,28.818-17.1Z"/><path class="b" d="M191.979,278.805c-.349.288.552-.385-.067.049-.193.136-.384.275-.577.41-.577.4-1.163.792-1.75,1.178-1.69,1.111-3.4,2.187-5.122,3.251q-6.648,4.112-13.476,7.925c-7.585,4.223-15.491,7.724-23.351,11.394a93.17,93.17,0,0,0-10.366,5.176,2.482,2.482,0,0,0-1.1,2.71,42.791,42.791,0,0,0,2.548,7.186c1.53,3.729,3.165,7.414,4.863,11.069,1.569,3.38,3.185,6.741,4.914,10.041.636,1.215,1.284,2.427,1.992,3.6.214.356.429.716.669,1.055a2.8,2.8,0,0,0,3.2,1.037,52.644,52.644,0,0,0,8.31-2.8q5.767-2.181,11.438-4.61c8.426-3.612,16.539-8.031,24.645-12.3,7.936-4.181,16.339-8.117,23.382-13.729,4.143-3.3,7.792-7.468,9.55-12.534,1.526-4.4,1.184-9.09.367-13.589a213.961,213.961,0,0,0-6.385-24.4c-2.648-8.626-5.443-17.206-8.038-25.848-2.4-7.987-4.541-16.043-7.168-23.961-1.467-4.423-3.063-8.8-4.917-13.079a46,46,0,0,0-5.3-9.661,16.738,16.738,0,0,0-3.35-3.395,2.415,2.415,0,0,0-3.284.861,2.456,2.456,0,0,0,.861,3.283c-.5-.376.112.1.21.19.191.17.375.349.554.531a15.223,15.223,0,0,1,1.1,1.263c-.275-.35.261.363.308.43.163.229.321.461.476.695.4.607.782,1.23,1.145,1.861a66.366,66.366,0,0,1,3.963,8.353c2.724,6.762,4.9,13.739,6.961,20.727,1.746,5.921,3.391,11.87,5.215,17.768,2.158,6.983,4.388,13.943,6.535,20.928,1.829,5.952,3.588,11.912,5.011,17.975,1.555,6.623,3.543,13.818.04,20.136-3.848,6.937-11.246,11.136-17.986,14.808q-9.363,5.1-18.845,9.985c-5.936,3.065-12.2,6.336-18.171,8.856a164.47,164.47,0,0,1-16.458,6.242c-.365.11-.732.219-1.1.306a2.668,2.668,0,0,0-.44.1c-.3.132.684-.057.248-.039l2.072,1.189a87.533,87.533,0,0,1-6.04-11.439c-2.359-4.928-4.627-9.895-6.569-14.8a35.394,35.394,0,0,1-1.894-5.565l-1.1,2.71a82.777,82.777,0,0,1,8.968-4.521c4.1-1.926,8.218-3.8,12.323-5.71a247.476,247.476,0,0,0,24.93-13.665,82.007,82.007,0,0,0,9.46-6.237,2.417,2.417,0,0,0,0-3.394,2.453,2.453,0,0,0-3.394,0Z"/><path class="d" d="M39.087,280.5c2.1,1.759,17.669,11.486,28.818,17.1,5.481,2.76,21.686,10.578,25.375,12.931-1.045,5.1-11.461,27.584-14.745,32.379-2.054-.03-17.056-6.6-22.6-9.269-11.58-5.577-27.9-14.306-33.925-17.622Z"/><path class="b" d="M37.39,282.2a70.044,70.044,0,0,0,7.684,5.14q6.555,4.082,13.288,7.869c7.6,4.269,15.484,7.968,23.269,11.874,3.5,1.756,7.121,3.429,10.437,5.523l-1.1-2.71a31.269,31.269,0,0,1-1.553,4.693c-.921,2.388-1.766,4.369-2.77,6.656-2.231,5.08-4.581,10.118-7.127,15.048a52.322,52.322,0,0,1-3.052,5.409l2.072-1.189c-.423-.019.5.182.231.032a1.806,1.806,0,0,0-.4-.092c-.435-.111-.863-.252-1.288-.395-1.121-.377-2.226-.8-3.327-1.234-2.851-1.12-5.653-2.316-8.458-3.544-5.983-2.621-11.843-5.474-17.664-8.437q-10.144-5.164-20.159-10.581c-6.449-3.478-13.162-6.954-18.06-12.549a17.9,17.9,0,0,1-4.468-9.138,29.138,29.138,0,0,1,.777-9.894c1.306-6.23,2.957-12.359,4.785-18.453,3.866-12.879,8.063-25.65,11.774-38.576,1.984-6.913,4.042-13.815,6.5-20.578,1.126-3.1,2.33-6.181,3.747-9.164.652-1.373,1.346-2.728,2.113-4.041q.453-.775.943-1.527c.177-.269.358-.536.544-.8.09-.127.182-.252.273-.378.252-.345-.05.054.1-.138.327-.407.668-.8,1.034-1.177.179-.182.363-.361.554-.531.11-.1.717-.567.21-.19a2.474,2.474,0,0,0,.861-3.283,2.416,2.416,0,0,0-3.283-.861,22.749,22.749,0,0,0-6.052,7.646,92.055,92.055,0,0,0-5.2,11.865c-3.117,8.369-5.578,16.966-8.023,25.549-2.29,8.04-4.862,16-7.358,23.973C6.827,261.754,4.31,269.5,2.468,277.4c-1.1,4.7-2.4,9.494-2.466,14.355a21.4,21.4,0,0,0,4.127,12.98c5.746,7.855,14.646,12.313,23.024,16.8,15.36,8.233,30.9,16.626,47.287,22.665a19.869,19.869,0,0,0,3.146.991,2.721,2.721,0,0,0,3.055-1.117c.29-.414.547-.853.8-1.288,1.6-2.718,3-5.563,4.38-8.4a201.416,201.416,0,0,0,8.882-20.31,22.923,22.923,0,0,0,.887-2.907,2.49,2.49,0,0,0-1.1-2.711c-2.832-1.788-5.906-3.237-8.891-4.745-3.9-1.971-7.826-3.9-11.747-5.835q-12.541-6.187-24.439-13.5c-1.966-1.2-3.922-2.425-5.853-3.685-.671-.439-1.341-.881-2-1.337-.221-.153-.438-.31-.658-.464-.649-.454.175.156-.119-.087a2.469,2.469,0,0,0-3.394,0,2.418,2.418,0,0,0,0,3.394Z"/><path class="b" d="M166.851,82.941a5.042,5.042,0,0,1,7.209.845c.939,1.384.97,3.314,1.011,4.925a26.687,26.687,0,0,1-.366,5.334c-1.164,6.562-4.624,14.5-11.929,15.763a2.421,2.421,0,0,0-1.677,2.952,2.456,2.456,0,0,0,2.953,1.676c7.675-1.327,12.247-8.514,14.389-15.433a32.007,32.007,0,0,0,1.38-11.4c-.241-3.784-1.4-7.376-4.9-9.333a10.064,10.064,0,0,0-11.467,1.278,2.421,2.421,0,0,0,0,3.395,2.451,2.451,0,0,0,3.394,0Z"/><path class="b" d="M160.936,106.5a25.429,25.429,0,0,1-1.217,6.43c-.229.766-.48,1.524-.734,2.282l-.238.7c-.161.468-.1.238-.033.1a51.447,51.447,0,0,1-3.331,6.115A60.191,60.191,0,0,1,142,137.6a25.489,25.489,0,0,1-9.935,5.037c-3.009.693-1.736,5.322,1.276,4.628,7.553-1.739,13.882-7.164,18.871-12.859a64.939,64.939,0,0,0,10.5-15.63,33.3,33.3,0,0,0,3.028-12.27c.1-3.089-4.7-3.085-4.8,0Z"/><path class="b" d="M65.56,79.546a10,10,0,0,0-10.036-1.928c-3.755,1.468-5.7,4.576-6.187,8.485a31.162,31.162,0,0,0,5.429,21.554,16.325,16.325,0,0,0,10.2,6.779,2.47,2.47,0,0,0,2.953-1.676,2.42,2.42,0,0,0-1.677-2.952c-7.3-1.263-10.764-9.2-11.928-15.763a26.688,26.688,0,0,1-.367-5.334c.04-1.606.064-3.55,1.011-4.925a5.041,5.041,0,0,1,7.209-.845,2.464,2.464,0,0,0,3.394,0,2.421,2.421,0,0,0,0-3.395Z"/><path class="b" d="M63.593,105.813c2.752,15.867,11.353,31.4,26.046,39.076a35.524,35.524,0,0,0,12.861,3.856,2.415,2.415,0,0,0,2.4-2.4,2.454,2.454,0,0,0-2.4-2.4c-15.051-1.566-26.8-15.073-31.538-28.63a67.483,67.483,0,0,1-2.74-10.778,2.422,2.422,0,0,0-2.953-1.677,2.456,2.456,0,0,0-1.676,2.953Z"/><path class="b" d="M64.078,82.266a64.531,64.531,0,0,0,8.652-1.8q7.929-1.956,15.714-4.444A176.558,176.558,0,0,0,122.878,61.2c4.977-2.862,9.7-6.129,14.376-9.447a2.467,2.467,0,0,0,.861-3.284,2.421,2.421,0,0,0-3.284-.861c-4.1,2.909-8.23,5.786-12.545,8.373a148.1,148.1,0,0,1-15.045,7.757,205.1,205.1,0,0,1-33.755,11.6c-2.124.545-4.255,1.064-6.4,1.533-.746.163-1.493.321-2.243.462-.246.047-.493.087-.739.132-.777.144.3-.025-.028.008a2.47,2.47,0,0,0-2.4,2.4,2.415,2.415,0,0,0,2.4,2.4Z"/><path class="b" d="M166.365,81.594c-6.8-2.905-12.605-8.352-17.242-14.015-4.737-5.787-7.905-12.372-11.008-19.114a2.421,2.421,0,0,0-3.284-.861,2.456,2.456,0,0,0-.861,3.284c1.408,3.06,2.762,6.143,4.363,9.11a69.471,69.471,0,0,0,7.4,10.975c4.86,5.936,11.093,11.724,18.214,14.765a2.479,2.479,0,0,0,3.283-.861,2.415,2.415,0,0,0-.861-3.283Z"/><path class="b" d="M65.448,142.425a13.434,13.434,0,0,0,11.818.793,2.4,2.4,0,0,0,1.1-1.435,2.452,2.452,0,0,0-.242-1.849,2.421,2.421,0,0,0-1.434-1.1,2.812,2.812,0,0,0-1.849.242c.039-.017.561-.214.255-.113-.074.025-.147.054-.221.079-.172.058-.346.109-.522.155s-.324.079-.488.112c-.1.021-.211.039-.316.058-.346.063.219-.007.25-.03-.1.07-.412.045-.532.054q-.306.022-.613.03-.594.013-1.187-.031c-.187-.014-.377-.049-.565-.054.088,0,.547.083.215.028-.094-.016-.188-.03-.282-.047a11.667,11.667,0,0,1-1.181-.271c-.386-.11-.752-.263-1.131-.39.085.028.479.22.191.075-.1-.051-.208-.1-.31-.15-.183-.093-.361-.193-.537-.3a2.4,2.4,0,0,0-2.422,4.145Z"/><path class="b" d="M91.962,315.142c2.641,1.067,5.719,1.178,8.512,1.539.057.008.654.086.348.045s.358.05.345.048q.547.078,1.092.163c.7.111,1.395.235,2.086.388a17.59,17.59,0,0,1,1.951.535c.14.048.277.1.416.152.424.153-.271-.155-.028-.01s.512.26.758.413a2.4,2.4,0,0,0,2.423-4.145c-2.562-1.591-5.8-1.912-8.724-2.3-.739-.1-1.479-.191-2.218-.286l-.656-.084c-.468-.061.168.024-.116-.016-.349-.048-.7-.1-1.047-.152a17.348,17.348,0,0,1-3.866-.917,2.407,2.407,0,0,0-2.953,1.676,2.473,2.473,0,0,0,1.677,2.952Z"/><path class="b" d="M88.5,341.659c-2.117-1.632-4.375-3.068-6.55-4.619A2.423,2.423,0,0,0,80.1,336.8a2.4,2.4,0,0,0-1.677,2.952,2.733,2.733,0,0,0,1.1,1.435c2.176,1.551,4.433,2.986,6.551,4.618a2.4,2.4,0,0,0,1.849.242,2.445,2.445,0,0,0,1.434-1.1,2.418,2.418,0,0,0,.242-1.849l-.242-.573a2.4,2.4,0,0,0-.861-.861Z"/><path class="b" d="M109.063,324.156c.395-2.57,2.094-4.233,4.313-5.428a31.751,31.751,0,0,1,7.169-2.843c2.808-.715,5.823-.149,8.74.066a51.393,51.393,0,0,0,10.189-.079,2.478,2.478,0,0,0,2.4-2.4,2.414,2.414,0,0,0-2.4-2.4,55.752,55.752,0,0,1-11.3-.006,53.36,53.36,0,0,0-5.43-.349,17.409,17.409,0,0,0-4.514.829c-5.613,1.7-12.794,4.791-13.8,11.334a2.477,2.477,0,0,0,1.676,2.953,2.418,2.418,0,0,0,2.952-1.677Z"/><path class="b" d="M102.945,355.033c-2.994,3.545.235,7.744,4.231,8.231a17.036,17.036,0,0,0,6.407-.937,38.487,38.487,0,0,0,4.354-1.593c7.976-3.345,16.02-6.993,23.306-11.677a137.369,137.369,0,0,0,11.648-8.183,2.414,2.414,0,0,0,0-3.394,2.457,2.457,0,0,0-3.394,0c-2.652,2.124-5.521,3.986-8.336,5.887a98.358,98.358,0,0,1-10.209,6.032q-5.093,2.61-10.313,4.958a73.427,73.427,0,0,1-6.972,2.92,17.406,17.406,0,0,1-5.652,1.256,2.368,2.368,0,0,1-1.332-.436c.019.017-.308-.267-.166-.162-.083-.062.033-.232-.031-.063-.077.2.022.356-.147.556a2.465,2.465,0,0,0,0-3.395,2.421,2.421,0,0,0-3.394,0Z"/><path class="b" d="M113.76,106a29.567,29.567,0,0,1,1.085,4.195l-.085-.638a2.139,2.139,0,0,1,.014.48l.086-.638a1.27,1.27,0,0,1-.062.25l.242-.573a1.067,1.067,0,0,1-.092.165l.375-.486a.947.947,0,0,1-.139.137l.486-.375a1.979,1.979,0,0,1-.315.159l.573-.242a3.325,3.325,0,0,1-.759.209l.638-.086a3.141,3.141,0,0,1-.738-.008l.638.085c-.414-.057-.824-.129-1.24-.175a2.4,2.4,0,0,0-1.7.7,2.4,2.4,0,0,0,0,3.394l.486.375a2.4,2.4,0,0,0,1.211.328c.034,0,.069.007.1.012l-.638-.086a13.4,13.4,0,0,0,1.451.191,4.647,4.647,0,0,0,1.728-.276,3.967,3.967,0,0,0,1.519-.856,3.2,3.2,0,0,0,.8-1.319,4.218,4.218,0,0,0,.025-2.143,35.75,35.75,0,0,0-1.062-4.058,2.517,2.517,0,0,0-1.1-1.434A2.4,2.4,0,0,0,113.76,106Z"/><path class="b" d="M128.275,97.073a10.551,10.551,0,0,0,14.371,0,2.4,2.4,0,1,0-3.394-3.394c-.091.09-.183.178-.279.263s-.535.438-.147.134-.14.088-.257.162q-.273.174-.563.322c-.095.049-.192.093-.288.141-.417.208.5-.172.068-.032-.287.095-.568.194-.862.266-.131.033-.263.061-.4.087-.339.066-.2.083.046.008a4.168,4.168,0,0,1-1.117.066c-.346,0-.687-.029-1.031-.056-.316-.025.487.093.039,0-.159-.034-.319-.064-.478-.1-.269-.066-.529-.154-.792-.241-.511-.169.253.132.062.034-.1-.049-.2-.091-.293-.139-.369-.187-.691-.428-1.041-.644.7.432.211.165.024,0-.095-.085-.187-.173-.278-.263a2.4,2.4,0,0,0-3.394,3.394Z"/><path class="b" d="M97.273,93.693c-.089.089-.179.176-.272.26s-.528.429-.134.129-.125.084-.24.158c-.176.114-.358.22-.544.317-.092.049-.186.092-.279.139-.409.21.5-.177.083-.034-.279.094-.554.191-.84.262-.128.032-.258.06-.388.086-.351.068-.171.086.058.006a3.749,3.749,0,0,1-1.1.066c-.342,0-.678-.029-1.018-.056-.315-.025.493.093.045,0-.159-.033-.317-.062-.475-.1-.268-.066-.53-.149-.791-.238-.51-.174.258.134.061.037-.1-.048-.2-.089-.293-.137a9.216,9.216,0,0,1-1.048-.635c-.328-.222.469.391.2.155-.059-.052-.121-.1-.18-.153-.095-.084-.187-.171-.277-.26a2.4,2.4,0,0,0-3.394,3.394,10.438,10.438,0,0,0,14.22,0,2.4,2.4,0,0,0-3.394-3.394Z"/><path class="b" d="M105.171,127.74a28.471,28.471,0,0,0,18.181,0,2.459,2.459,0,0,0,1.676-2.952,2.422,2.422,0,0,0-2.952-1.677,22.9,22.9,0,0,1-8.247,1.363,24.539,24.539,0,0,1-7.382-1.363,2.4,2.4,0,1,0-1.276,4.629Z"/></svg>