<?xml version="1.0" encoding="iso-8859-1"?>
<!-- Uploaded to: SVG Repo, www.svgrepo.com, Generator: SVG Repo Mixer Tools -->
<svg fill="#000000" version="1.1" id="Layer_1" xmlns="http://www.w3.org/2000/svg" xmlns:xlink="http://www.w3.org/1999/xlink" 
	 viewBox="0 0 512.001 512.001" xml:space="preserve">
<g>
	<g>
		<g>
			<polygon points="200.12,231.891 215.772,231.891 215.772,191.703 223.252,191.703 223.252,176.052 183.24,176.052 
				183.24,191.703 200.12,191.703 			"/>
			<polygon points="287.271,191.703 296.148,191.703 296.148,231.891 311.8,231.891 311.8,191.703 327.282,191.703 327.282,176.052 
				287.271,176.052 			"/>
			<rect x="247.954" y="472.136" width="16.004" height="15.652"/>
			<rect x="247.954" y="496.146" width="16.004" height="15.652"/>
			<path d="M311.801,319.917v-8.002c0-17.553-14.281-31.833-31.832-31.833c-0.55,0-1.097,0.015-1.639,0.042
				c0.944-2.564,1.462-5.332,1.462-8.22v-8.002h-15.652v8.002c0,4.51-3.669,8.179-8.179,8.179c-4.51,0-8.18-3.669-8.18-8.179v-8.002
				H232.13v8.002c0,2.888,0.516,5.656,1.462,8.22c-0.544-0.027-1.089-0.042-1.638-0.042c-17.553,0-31.833,14.281-31.833,31.833
				v8.002c0,4.51-3.669,8.178-8.178,8.178v15.652h40.012c9.574,0,18.166-4.254,24.008-10.963
				c5.841,6.71,14.434,10.963,24.008,10.963h40.012v-15.652C315.47,328.096,311.801,324.427,311.801,319.917z M231.953,328.097
				h-17.628c0.935-2.552,1.446-5.306,1.446-8.179v-8.002c0-8.922,7.259-16.182,16.182-16.182c8.922,0,16.182,7.259,16.182,16.182
				C248.135,320.837,240.876,328.097,231.953,328.097z M279.968,328.096c-8.922,0-16.182-7.259-16.182-16.181
				c0-8.922,7.259-16.182,16.182-16.182c8.922,0,16.181,7.259,16.181,16.182v8.002c0,2.872,0.51,5.626,1.446,8.178H279.968z"/>
			<rect x="239.961" y="368.105" width="32.01" height="15.652"/>
			<path d="M383.822,322.197v-82.411c35.719-4.808,65.89-11.598,87.572-19.73c24.826-9.312,38.648-20.447,40.545-33.083
				l-0.051-19.922c-0.019-7.154-3.689-13.803-9.732-17.63L266.232,0h-12.548L9.856,155.04c-6.042,3.841-9.701,10.504-9.701,17.663
				v13.82l0.018,0.011c3.87,31.54,78.802,46.672,128.289,53.3l0.287,82.144C50.395,347.748,0.062,421.731,0.062,511.974h15.652
				c0-71.241,33.735-131.43,88.414-162.148l0.413,162.169l15.652-0.04l-0.432-169.851c2.98-1.282,6.011-2.484,9.093-3.602
				c0.273,14,2.73,27.628,7.259,40.465l0.438,133.035l15.652-0.052l-0.337-102.386c4.15,5.918,8.828,11.522,14.012,16.749
				c23.97,24.164,55.963,37.472,90.084,37.472c42.942,0,81.009-21.28,104.206-53.847v102.038h15.652V380.448
				c4.857-13.034,7.647-27.065,7.968-41.694c2.833,1.041,5.622,2.16,8.375,3.343l-0.433,169.857l15.652,0.04l0.412-162.173
				c21.882,12.302,40.598,29.477,55.124,50.8c21.322,31.298,32.591,69.802,32.591,111.353h15.652
				C511.16,421.863,461.379,348.046,383.822,322.197z M383.822,216.037v-32.309c8.678,0.28,15.658,7.408,15.658,16.155
				C399.48,208.629,392.5,215.758,383.822,216.037z M102.555,219.974c-63.038-11.317-86.842-27.084-86.842-36.097
				c0-6.294,14.019-20.112,66.557-31.976c13.978-3.156,29.362-5.881,45.829-8.152l0.001,24.3h-0.876
				c-17.553,0-31.833,14.281-31.833,31.832C95.391,207.496,98.08,214.491,102.555,219.974z M127.224,216.063
				c-8.922,0-16.182-7.259-16.182-16.182c0-8.922,7.259-16.181,16.182-16.181h1.042l0.113,32.362H127.224z M143.775,142.786
				c36.323-4.334,69.304-6.369,98.248-7.009c4.625-0.057,9.269-0.09,13.936-0.09c27.96,0,55.186,1.047,80.815,3.05
				c14.57,1.333,25.205,2.789,31.395,3.745v15.721c-91.274-18.245-193.215-4.611-224.339,0.379L143.775,142.786z M255.961,448.132
				c-29.918,0-57.964-11.664-78.973-32.843c-11.213-11.304-19.73-24.617-25.235-39.149l-0.001-0.232h-0.085
				c-4.739-12.596-7.219-26.104-7.219-40.014l-0.563-161.437c27.041-4.364,133.289-19.224,224.284-0.272v161.738h0.001
				C368.171,397.794,317.834,448.132,255.961,448.132z M345.615,123.764c-24.722-2.591-63.017-5.065-112.285-3.498
				c-58.301,1.176-112.495,6.882-154.507,16.368c-6.351,1.435-12.316,2.93-17.904,4.485L233.48,31.394l-16.324,28.565l13.589,7.765
				l29.216-51.129l29.215,51.129l13.589-7.765l-16.382-28.671l182.1,115.331c-10.065-3.597-21.853-6.929-35.385-9.985
				C407.774,130.915,378.022,126.572,345.615,123.764z M383.822,143.749c16.467,2.271,31.852,4.996,45.829,8.152
				c52.537,11.864,66.556,25.682,66.556,31.976c0,9.09-24.222,25.05-88.479,36.386c4.617-5.526,7.403-12.633,7.403-20.382
				c0-17.378-13.999-31.538-31.31-31.82V143.749z"/>
		</g>
	</g>
</g>
</svg>